<svg width="32" height="26" viewBox="0 0 32 26" fill="none" xmlns="http://www.w3.org/2000/svg">
<path d="M2 0.749992C1.66848 0.749992 1.35054 0.881688 1.11612 1.11611C0.881696 1.35053 0.75 1.66847 0.75 1.99999C0.75 2.33151 0.881696 2.64945 1.11612 2.88387C1.35054 3.1183 1.66848 3.24999 2 3.24999H4.775L8.055 16.375C8.33375 17.4875 9.33 18.25 10.4762 18.25H26.0637C27.1925 18.25 28.1513 17.5 28.4475 16.4125L31.6875 4.49999H29.07L26.0625 15.75H10.475L7.19625 2.62499C7.06081 2.08653 6.74859 1.60909 6.3096 1.26913C5.8706 0.929178 5.33022 0.746373 4.775 0.749992H2ZM24.5 18.25C22.4438 18.25 20.75 19.9437 20.75 22C20.75 24.0562 22.4438 25.75 24.5 25.75C26.5562 25.75 28.25 24.0562 28.25 22C28.25 19.9437 26.5562 18.25 24.5 18.25ZM13.25 18.25C11.1938 18.25 9.5 19.9437 9.5 22C9.5 24.0562 11.1938 25.75 13.25 25.75C15.3062 25.75 17 24.0562 17 22C17 19.9437 15.3062 18.25 13.25 18.25ZM17 0.749992V6.99999H13.25L18.25 12L23.25 6.99999H19.5V0.749992H17ZM13.25 20.75C13.955 20.75 14.5 21.295 14.5 22C14.5 22.705 13.955 23.25 13.25 23.25C12.545 23.25 12 22.705 12 22C12 21.295 12.545 20.75 13.25 20.75ZM24.5 20.75C25.205 20.75 25.75 21.295 25.75 22C25.75 22.705 25.205 23.25 24.5 23.25C23.795 23.25 23.25 22.705 23.25 22C23.25 21.295 23.795 20.75 24.5 20.75Z" fill="white"/>
</svg>
