<svg width="402" height="375" viewBox="0 0 402 375" fill="none" xmlns="http://www.w3.org/2000/svg">
<path opacity="0.5" d="M215.078 68.7999C220.284 81.6106 223.193 95.6463 223.193 110.345V135.048C223.193 151.84 236.82 165.467 253.561 165.467H285.818C307.662 165.467 325.373 183.178 325.373 205.022V236.768C325.373 256.928 341.705 273.312 361.917 273.312H364.724C380.138 273.312 393.255 282.907 398.461 296.483V180.626C398.461 156.076 378.556 136.12 353.955 136.12H330.273C318.789 136.12 309.449 126.78 309.449 115.296V99.8314C309.449 85.3875 303.579 72.3216 294.137 62.8794C284.695 53.4373 271.629 47.5679 257.185 47.5679C239.934 47.5168 224.622 55.8872 215.078 68.7999Z" fill="url(#paint0_linear_144_3519)"/>
<path opacity="0.71" d="M2.90924 110.346V293.166C2.90924 302.914 10.7182 310.825 20.4667 310.978L66.1977 311.591C70.8423 311.642 75.0785 313.581 78.0898 316.644C81.1521 319.706 83.0406 323.942 83.0406 328.587C83.0916 337.978 90.7475 345.583 100.139 345.583H365.185C375.188 345.583 384.222 341.551 390.755 335.018C397.288 328.485 401.32 319.451 401.32 309.447C401.32 304.854 400.453 300.516 398.921 296.483C393.715 282.958 380.547 273.312 365.185 273.312H362.377C342.217 273.312 325.834 256.98 325.834 236.768V205.022C325.834 183.178 308.123 165.467 286.278 165.467H254.022C237.23 165.467 223.653 151.84 223.653 135.048V110.346C223.653 95.6464 220.795 81.6108 215.538 68.8001C209.924 55.0196 201.655 42.6173 191.295 32.3074C171.338 12.3513 143.726 0 113.256 0C53.591 0 4.95081 47.3638 2.96027 106.569C2.90924 107.794 2.90924 109.07 2.90924 110.346Z" fill="url(#paint1_linear_144_3519)"/>
<path d="M372.941 256.061H374.217C375.544 256.061 376.667 254.989 376.667 253.611V232.838C376.667 231.511 375.595 230.388 374.217 230.388H372.941C371.614 230.388 370.491 231.46 370.491 232.838V253.611C370.491 254.938 371.614 256.061 372.941 256.061Z" fill="#F56D58"/>
<path d="M347.218 247.18C348.443 246.67 349.005 245.24 348.494 244.016L344.411 234.369C343.901 233.144 342.472 232.583 341.247 233.093C340.022 233.604 339.461 235.033 339.971 236.258L344.054 245.904C344.564 247.129 345.993 247.69 347.218 247.18Z" fill="#F56D58"/>
<path d="M357.682 222.375L359.162 273.465L344.208 239.933" stroke="black" stroke-width="0.5" stroke-miterlimit="10" stroke-linecap="round"/>
<path d="M165.314 318.736C166.539 318.481 167.407 317.256 167.152 316.031L164.344 301.587C164.089 300.362 162.864 299.495 161.639 299.75C160.414 300.005 159.547 301.23 159.802 302.455L162.609 316.899C162.864 318.124 164.089 318.94 165.314 318.736Z" fill="#F56D58"/>
<path d="M162.201 303.067L165.314 318.736L164.855 345.276" stroke="black" stroke-width="0.5" stroke-miterlimit="10" stroke-linecap="round"/>
<path d="M174.911 305.364V345.276" stroke="black" stroke-width="0.5" stroke-miterlimit="10" stroke-linecap="round"/>
<path d="M373.608 238.299V274.333" stroke="black" stroke-width="0.5" stroke-miterlimit="10" stroke-linecap="round"/>
<path d="M373.604 268.616L382.944 255.04" stroke="black" stroke-width="0.5" stroke-miterlimit="10" stroke-linecap="round"/>
<path d="M382.945 258C381.31 258 379.985 256.675 379.985 255.04C379.985 253.405 381.31 252.08 382.945 252.08C384.58 252.08 385.905 253.405 385.905 255.04C385.905 256.675 384.58 258 382.945 258Z" fill="#F56D58"/>
<path d="M373.608 245.496L371.618 242.331" stroke="black" stroke-width="0.5" stroke-miterlimit="10" stroke-linecap="round"/>
<path d="M373.606 252.08L375.698 248.609" stroke="black" stroke-width="0.5" stroke-miterlimit="10" stroke-linecap="round"/>
<path d="M345.843 243.913L344.21 242.331" stroke="black" stroke-width="0.5" stroke-miterlimit="10" stroke-linecap="round"/>
<path d="M164.857 334.048L156.028 322.564" stroke="black" stroke-width="0.5" stroke-miterlimit="10" stroke-linecap="round"/>
<path d="M156.029 324.759C154.817 324.759 153.834 323.776 153.834 322.564C153.834 321.352 154.817 320.369 156.029 320.369C157.241 320.369 158.224 321.352 158.224 322.564C158.224 323.776 157.241 324.759 156.029 324.759Z" fill="#F56D58"/>
<path d="M174.912 341.499L183.231 323.891" stroke="black" stroke-width="0.5" stroke-miterlimit="10" stroke-linecap="round"/>
<path d="M183.23 326.596C181.736 326.596 180.525 325.385 180.525 323.891C180.525 322.397 181.736 321.186 183.23 321.186C184.724 321.186 185.936 322.397 185.936 323.891C185.936 325.385 184.724 326.596 183.23 326.596Z" fill="#F56D58"/>
<path d="M164.295 313.428L165.061 310.825" stroke="black" stroke-width="0.5" stroke-miterlimit="10" stroke-linecap="round"/>
<path d="M163.326 308.58L161.642 306.895" stroke="black" stroke-width="0.5" stroke-miterlimit="10" stroke-linecap="round"/>
<path d="M175.834 306.691L184.511 306.079C184.97 306.028 185.276 305.67 185.276 305.211L185.225 304.701L179.968 305.364L179.866 304.343L179.611 301.74L173.844 305.824C174.354 306.436 175.069 306.742 175.834 306.691Z" fill="url(#paint2_linear_144_3519)"/>
<path d="M176.956 284.081L172.618 286.735C171.853 287.195 171.393 288.113 171.495 289.032L173.333 304.599C173.486 306.079 175.017 307.049 176.446 306.538L179.61 305.722C179.815 305.67 179.968 305.466 179.968 305.262L178.028 284.592C177.977 284.081 177.416 283.775 176.956 284.081Z" fill="url(#paint3_linear_144_3519)"/>
<path d="M179.819 284.285L178.033 284.796L179.87 304.343L181.248 303.935C181.401 303.884 181.452 303.782 181.452 303.629L180.176 284.54C180.227 284.336 180.023 284.234 179.819 284.285Z" fill="url(#paint4_linear_144_3519)"/>
<path d="M184.306 287.092L180.427 287.807L181.448 303.527C181.448 303.731 181.346 303.884 181.142 303.935L179.866 304.343L179.968 305.364L186.194 304.599C186.45 304.548 186.603 304.343 186.552 304.088L184.561 287.348C184.612 287.194 184.459 287.092 184.306 287.092Z" fill="url(#paint5_linear_144_3519)"/>
<path d="M356.458 224.927C354.774 223.141 351.303 219.823 348.7 218.905C348.139 218.701 347.782 218.088 348.037 217.476C348.955 215.077 350.793 209.309 350.691 203.236C350.691 202.572 351.354 202.164 351.967 202.47C353.702 203.44 356.867 205.686 359.265 209.718C359.265 209.718 366.717 205.38 369.575 208.289C369.779 208.493 369.83 208.748 369.779 209.054L366.564 224.417C366.411 225.029 365.798 225.438 365.186 225.336C363.502 225.029 360.439 224.57 358.602 225.336C357.785 225.642 356.969 225.438 356.458 224.927Z" fill="url(#paint6_linear_144_3519)"/>
<path d="M359.165 209.769C359.165 209.769 357.226 205.533 352.479 203.134C352.071 202.93 351.611 203.185 351.56 203.644C351.356 206.247 350.642 213.852 349.315 216.863C349.11 217.323 349.314 217.884 349.774 218.037C351.56 218.701 355.337 220.487 357.43 224.162L359.165 209.769Z" fill="url(#paint7_linear_144_3519)"/>
<path d="M359.162 209.769C359.162 209.769 363.807 206.962 367.329 207.472C367.89 207.574 368.298 208.136 368.196 208.697L365.491 223.141C365.389 223.651 364.93 223.958 364.419 223.855C362.582 223.498 358.55 222.835 357.529 224.111L359.162 209.769Z" fill="url(#paint8_linear_144_3519)"/>
<path d="M228.862 166.08L237.079 158.373C238.61 156.944 240.601 156.076 242.694 155.872L254.484 154.851C255.351 154.8 256.27 155.107 256.882 155.719L258.158 156.944C258.567 157.301 258.618 157.914 258.414 158.373L256.372 162.303C256.27 162.507 256.219 162.711 256.27 162.966L256.729 166.488C256.78 166.896 256.985 167.305 257.291 167.56L258.261 168.479L257.342 169.397C257.342 169.397 239.682 162.252 229.066 166.335C228.862 166.335 228.76 166.182 228.862 166.08Z" fill="url(#paint9_linear_144_3519)"/>
<path d="M232.996 150.462C233.659 152.708 233.864 154.137 234.425 156.485C234.935 158.577 235.242 160.108 235.242 160.108L237.028 158.373C237.794 157.607 238.661 157.046 239.631 156.638C240.601 156.229 241.622 155.974 242.693 155.872L242.387 152.452L242.285 146.991H241.417L239.886 148.829C239.019 149.849 237.794 150.462 236.416 150.462H232.996Z" fill="#F5A287"/>
<path d="M255.605 154.8L242.386 152.452L242.692 155.872L255.605 154.8C255.656 154.851 255.656 154.8 255.605 154.8Z" fill="#08233B"/>
<path d="M228.707 166.131C228.707 166.182 228.758 166.233 228.758 166.182L235.24 160.108C235.24 160.108 234.883 158.577 234.424 156.484L234.322 156.536L228.707 166.131Z" fill="#08233B"/>
<path d="M228.759 166.182L227.841 177.512L232.485 169.704C234.782 167.509 239.58 166.182 242.744 165.467C242.693 165.467 234.476 164.089 228.759 166.182Z" fill="url(#paint10_linear_144_3519)"/>
<path d="M234.424 156.076L232.484 149.135L241.518 147.042H242.335V149.849L234.424 156.076Z" fill="url(#paint11_linear_144_3519)"/>
<path d="M256.421 162.252C256.421 162.252 251.113 160.772 244.835 161.946C244.835 161.946 251.164 161.282 256.37 163.783L256.421 162.252Z" fill="url(#paint12_linear_144_3519)"/>
<path d="M248.46 163.579C247.49 163.375 246.47 163.324 245.449 163.375C243.407 163.477 239.681 163.681 235.547 164.447C235.547 164.447 244.683 163.477 249.991 163.885L248.46 163.579Z" fill="url(#paint13_linear_144_3519)"/>
<path d="M226.971 137.039C227.073 140.305 227.634 144.848 229.471 149.39C229.727 150.054 230.39 150.462 231.105 150.462H236.923C237.995 150.462 238.965 150.003 239.628 149.186L241.415 146.991L241.925 146.379L241.976 146.328L243.252 144.797L244.528 142.755C245.294 141.173 245.651 139.438 244.63 138.06C242.537 135.252 241.517 139.693 241.21 141.326C241.159 141.683 240.853 141.939 240.547 141.99L238.965 142.245V137.651C238.199 138.519 237.229 138.111 237.076 137.345C236.974 136.682 236.515 135.916 235.188 136.273C233.095 136.937 229.318 137.906 226.971 137.039Z" fill="url(#paint14_linear_144_3519)"/>
<path d="M226.968 137.039L227.224 140.254C227.224 140.254 230.388 140.101 234.624 138.366C235.135 138.162 235.645 138.519 235.645 139.08C235.645 139.08 236.002 140.458 237.84 139.131L239.014 142.194L240.902 141.836L241.514 146.991L246.771 142.194L246.516 135.916C246.516 135.916 234.675 130.098 234.522 130.404C234.369 130.71 228.397 134.64 228.397 134.64L226.968 137.039Z" fill="url(#paint15_linear_144_3519)"/>
<path d="M231.719 146.021C231.208 146.787 230.341 147.144 229.473 146.991C229.422 146.991 229.269 146.94 229.269 146.889C229.269 146.838 229.371 146.838 229.422 146.838C230.187 146.94 230.953 146.532 231.361 145.919C231.412 145.817 231.77 145.919 231.719 146.021Z" fill="#CC473A"/>
<path d="M225.234 130.2C225.234 130.2 222.682 130.046 221.457 129.179C221.457 129.179 224.979 130.149 226.561 129.179C228.092 128.26 225.132 127.495 224.825 127.443C225.234 127.495 230.899 128.26 237.994 125.096C239.372 124.483 240.443 125.453 241.158 126.627C241.515 127.188 241.975 127.699 242.536 128.056C242.179 127.239 241.975 126.321 241.975 125.402C241.975 125.198 242.689 125.351 242.689 125.606C242.689 126.525 242.893 127.392 243.302 128.209C243.404 127.801 243.557 127.392 243.761 126.984C243.812 126.933 243.914 126.882 243.965 126.882C244.067 126.882 244.169 126.882 244.271 126.933C244.424 127.035 244.527 127.137 244.424 127.341C244.22 127.75 244.067 128.26 243.965 128.719C244.322 128.822 244.68 128.873 245.037 128.873C245.598 128.873 246.058 128.975 246.415 129.23C247.793 130.302 249.681 134.027 249.528 138.111C249.477 139.08 249.069 139.999 248.405 140.765C247.385 141.938 245.7 144.133 244.322 147.093H241.362L241.872 146.481L241.924 146.43C242.281 146.073 242.74 145.511 243.2 144.899C243.659 144.286 244.118 143.572 244.475 142.857C245.241 141.275 245.598 139.54 244.578 138.162C242.485 135.354 241.464 139.795 241.158 141.428C241.107 141.785 240.801 142.041 240.494 142.092L238.912 142.347V137.753C238.147 138.621 237.177 138.213 237.024 137.447C236.922 136.784 236.462 136.018 235.135 136.375C232.992 136.988 229.215 138.008 226.867 137.141H226.816C224.519 136.273 221.661 134.538 219.262 129.74C219.568 129.74 222.988 131.322 225.234 130.2Z" fill="#08233B"/>
<path d="M253.914 172.204C254.271 175.777 256.364 188.435 257.895 193.079C259.426 197.724 260.906 213.75 260.906 213.75L268.664 217.22L272.9 216.098L274.482 210.126L268.919 182.718C268.46 180.371 268.562 177.921 269.276 175.624C270.042 173.174 270.859 170.112 270.808 168.581C270.706 166.233 264.479 166.131 263.05 166.131C262.846 166.131 262.692 166.131 262.488 166.182L260.753 166.488C260.498 166.539 260.243 166.641 260.038 166.794L253.914 172.204Z" fill="#F56D58"/>
<path d="M263.1 166.182L263.764 161.895H260.497L260.854 166.539L263.1 166.182Z" fill="#CE483A"/>
<path d="M257.232 169.346C257.232 169.346 248.811 166.029 242.89 165.518C236.715 164.957 232.427 169.703 232.427 169.703C232.427 169.703 241.002 166.59 253.915 172.204L257.232 169.346Z" fill="#DB5749"/>
<path d="M226.2 220.793C226.762 221.406 227.374 221.967 228.038 222.477C230.488 224.366 233.499 225.387 236.612 225.387C237.123 225.387 237.582 225.387 238.093 225.284L249.781 224.06C251.261 223.906 252.792 223.855 254.323 223.855C255.14 223.855 256.007 223.906 256.824 224.009L260.295 224.468C260.754 224.57 261.264 224.672 261.724 224.774L263.867 225.284L264.225 215.23L261.009 213.801C261.009 213.801 259.733 199.765 258.253 194.049C256.773 188.333 254.017 172.204 254.017 172.204C254.017 172.204 248.454 169.959 245.8 169.55L247.28 172.766C247.892 174.042 248.147 175.471 248.096 176.849C248.045 178.482 247.535 180.166 246.565 181.544C241.972 188.435 232.734 201.705 227.272 205.89L226.2 220.793Z" fill="url(#paint16_linear_144_3519)"/>
<path d="M226.201 220.793C250.138 220.538 248.045 176.849 248.045 176.849C247.994 178.482 247.484 180.166 246.514 181.544C241.921 188.435 232.683 201.705 227.221 205.89L226.201 220.793Z" fill="url(#paint17_linear_144_3519)"/>
<path opacity="0.31" d="M234.214 198.795L248.097 205.89L256.263 206.655L251.619 173.48L246.311 171.235L245.647 169.499L253.252 171.898L253.864 172.153L264.072 215.179L263.919 219.313L257.539 216.098L256.672 209.922L245.341 209.156C243.299 209.003 241.36 208.136 239.931 206.655L233.296 199.867L234.214 198.795Z" fill="#08233B"/>
<path d="M253.912 172.204C254.269 175.777 256.362 188.435 257.893 193.079C258.454 194.865 259.067 198.234 259.526 201.807C260.343 207.625 260.904 213.75 260.904 213.75L268.662 217.22L260.292 174.348L260.853 166.539C260.598 166.59 260.343 166.692 260.139 166.896L254.065 172.102L253.912 172.204Z" fill="#DB5749"/>
<path d="M231.968 201.705C231.968 201.705 247.382 217.578 259.07 202.47C259.223 202.266 259.376 202.062 259.529 201.858C259.019 198.285 258.457 194.866 257.896 193.13C256.365 188.486 254.323 175.828 253.915 172.255L253.558 172.102C251.516 171.235 249.168 170.469 246.718 169.806L244.422 169.295L231.968 201.705Z" fill="url(#paint18_linear_144_3519)"/>
<path d="M196.086 189.813L212.367 203.083L217.165 207.013H217.216C218.288 207.523 219.513 207.676 220.687 207.472L224.872 206.655C227.22 206.196 229.312 204.92 230.843 203.032C236.815 195.529 242.787 188.741 247.227 180.626C248.401 178.482 248.401 175.062 247.227 172.868L246.359 171.03L245.645 169.499C237.683 167.662 232.426 169.652 232.426 169.652L220.329 190.119L202.057 179.401L196.902 184.76L196.086 189.813Z" fill="url(#paint19_linear_144_3519)"/>
<path d="M263.764 225.234L259.783 227.734L260.242 224.468L263.764 225.234Z" fill="#08233B"/>
<path d="M258.709 201.909H247.735C245.03 201.909 242.376 201.194 240.079 199.816L235.537 197.162L234.21 198.847L239.212 203.695C241.457 205.89 244.469 207.115 247.582 207.217L260.342 207.625L259.627 201.909H258.709Z" fill="#DB5749"/>
<path d="M201.342 180.115L198.279 178.533C197.616 178.176 197.055 177.614 196.799 176.9L194.503 171.03C194.349 170.622 193.992 170.265 193.584 170.112L186.183 166.896C185.928 166.794 185.673 166.998 185.775 167.254L185.979 167.917C186.183 168.581 186.643 169.142 187.255 169.448L191.491 171.745L188.021 174.756C187.663 175.063 187.561 175.573 187.663 175.981L188.429 178.329C188.582 178.737 188.837 179.146 189.195 179.401L192.563 181.953C192.716 182.055 192.818 182.157 192.92 182.31L196.544 187.006L196.901 184.658L201.342 180.115Z" fill="#F5A287"/>
<path d="M201.342 180.115L198.79 178.839L194.962 182.259L194.656 184.607L196.544 187.057L196.901 184.709L201.342 180.115Z" fill="url(#paint20_linear_144_3519)"/>
<path d="M186.186 166.896C186.186 166.896 186.339 167.407 186.747 167.713C187.105 167.968 187.615 168.274 188.432 167.866L186.186 166.896Z" fill="url(#paint21_linear_144_3519)"/>
<path opacity="0.31" d="M232.477 169.652C232.477 169.652 242.073 168.683 246.411 171.03L245.748 169.55C245.697 169.55 238.194 167.611 232.477 169.652Z" fill="#08233B"/>
<path opacity="0.03" d="M212.367 203.083L217.165 207.013H217.216C218.288 207.523 219.513 207.676 220.687 207.472L224.872 206.655C227.22 206.196 229.312 204.92 230.843 203.032C236.815 195.529 242.787 188.741 247.227 180.626C248.401 178.482 248.401 175.063 247.227 172.868L246.359 171.031L246.308 170.979C246.359 171.031 228.138 212.117 212.367 203.083Z" fill="#08233B"/>
<path opacity="0.09" d="M220.33 190.119C220.33 190.119 221.709 193.436 218.136 195.835C218.136 195.835 220.126 192.62 220.33 190.119Z" fill="#08233B"/>
<path opacity="0.09" d="M220.333 190.119C220.333 190.119 219.772 193.385 217.271 193.641C217.271 193.641 219.057 192.314 220.333 190.119Z" fill="#08233B"/>
<path opacity="0.64" d="M258.614 343.439C213.372 343.439 176.696 339.234 176.696 334.048C176.696 328.861 213.372 324.657 258.614 324.657C303.855 324.657 340.531 328.861 340.531 334.048C340.531 339.234 303.855 343.439 258.614 343.439Z" fill="url(#paint22_radial_144_3519)"/>
<path d="M234.533 315.388C234.508 315.022 236.995 314.551 240.088 314.335C243.181 314.12 245.71 314.241 245.735 314.607C245.761 314.972 243.274 315.443 240.18 315.659C237.087 315.875 234.559 315.753 234.533 315.388Z" fill="#08233B"/>
<path d="M218.755 332.823L238.456 331.445C238.813 331.394 239.17 331.7 239.17 332.057C239.221 332.415 239.527 332.721 239.885 332.67L247.336 332.159C247.643 332.159 247.949 331.904 247.949 331.547C248 331.088 248.051 328.893 247.949 328.127C247.898 327.566 247.796 327.004 247.592 326.341C246.826 324.044 245.856 319.859 245.754 314.551C245.754 314.551 241.365 316.388 234.526 315.317C234.526 315.317 235.24 321.747 228.401 324.453C222.123 326.902 217.683 324.963 217.376 329.761C217.274 330.679 217.938 332.874 218.755 332.823Z" fill="#D0DCE2"/>
<path d="M218.55 332.823L238.456 331.445C238.813 331.394 239.17 331.7 239.17 332.057C239.221 332.414 239.527 332.721 239.885 332.67L247.336 332.159C247.643 332.159 247.949 331.904 247.949 331.547C248 331.087 248.051 328.893 247.949 328.127L247.898 327.719L217.427 329.863C217.172 330.577 217.785 332.874 218.55 332.823Z" fill="#1E88E5"/>
<path d="M244.785 314.908L243.969 303.629H232.178L235.394 315.521C235.394 315.47 241.161 316.235 244.785 314.908Z" fill="#F5A287"/>
<path d="M280.668 301.088C280.382 300.86 281.714 298.708 283.645 296.282C285.576 293.856 287.374 292.074 287.66 292.302C287.947 292.53 286.614 294.682 284.684 297.108C282.753 299.534 280.955 301.316 280.668 301.088Z" fill="#08233B"/>
<path d="M279.746 323.534C280.206 323.993 281.737 324.81 282.605 324.81C282.809 324.81 283.013 324.759 283.115 324.606L295.415 309.141C295.62 308.835 296.079 308.784 296.385 309.039C296.487 309.141 296.64 309.192 296.793 309.192C296.998 309.192 297.202 309.09 297.304 308.937L301.948 303.118C302.153 302.863 302.153 302.506 301.948 302.251C301.642 301.893 299.856 300.311 299.192 299.801C298.733 299.495 298.223 299.137 297.661 298.882C295.977 298.117 293.323 296.688 290.414 294.493C289.546 293.829 288.627 293.115 287.709 292.298C287.709 292.298 286.126 296.739 280.716 301.128C280.716 301.128 281.89 301.945 282.809 303.578C283.881 305.415 284.697 308.171 283.319 311.846C280.818 318.073 276.378 320.012 279.746 323.534Z" fill="#D0DCE2"/>
<path d="M282.962 324.759L295.364 309.141C295.62 308.835 296.028 308.784 296.334 309.039C296.64 309.294 297.049 309.243 297.304 308.937L301.948 303.118C302.153 302.863 302.153 302.506 301.948 302.251C301.642 301.944 299.856 300.311 299.192 299.801L298.835 299.546L279.849 323.432C280.206 324.146 282.452 325.371 282.962 324.759Z" fill="#1E88E5"/>
<path d="M287.25 293.166L278.267 286.02L270.815 295.105L281.329 300.515C281.329 300.515 285.821 296.739 287.25 293.166Z" fill="#F5A287"/>
<path d="M233.093 307.048L234.522 312.305L244.577 311.999L244.271 307.048H233.093Z" fill="url(#paint23_linear_144_3519)"/>
<path d="M279.596 287.041L272.654 296.024L278.524 299.035L284.648 291.073" fill="url(#paint24_linear_144_3519)"/>
<path d="M280.666 301.077C280.666 301.077 281.84 301.893 282.758 303.527C287.046 300.72 289.394 296.636 290.363 294.493C289.496 293.829 288.577 293.115 287.658 292.298C287.658 292.298 286.076 296.739 280.666 301.077Z" fill="#1E88E5"/>
<path d="M234.473 315.368C234.473 315.368 234.626 316.797 234.115 318.583C239.066 319.859 243.66 318.787 245.905 318.073C245.803 317.001 245.701 315.827 245.701 314.602C245.701 314.602 241.363 316.439 234.473 315.368Z" fill="#1E88E5"/>
<path d="M227.991 222.426C229.727 237.789 233.657 252.896 239.781 267.749C240.087 268.514 240.598 269.229 241.159 269.841L251.673 280.406L270.252 299.137L280.766 285.408L275.253 279.59L259.942 263.41C257.339 260.603 256.114 256.775 256.573 252.947L256.828 250.753L257.9 242.382L260.197 224.366L256.726 223.906L254.225 223.702C252.694 223.651 251.214 223.804 249.683 223.957L245.038 224.468L237.995 225.233C237.484 225.284 237.025 225.335 236.515 225.335C233.452 225.335 230.441 224.315 227.991 222.426Z" fill="url(#paint25_linear_144_3519)"/>
<path d="M220.946 263.359L225.642 285.459L230.236 307.048H246.823L246.415 303.578L242.791 271.372L241.26 269.841C240.648 269.229 240.188 268.514 239.831 267.749C233.757 252.845 229.674 237.738 228.041 222.528V222.477C224.876 236.156 221.967 248.966 220.793 260.909C220.691 261.726 220.742 262.543 220.946 263.359Z" fill="url(#paint26_linear_144_3519)"/>
<path opacity="0.12" d="M227.993 222.426C227.993 222.426 230.086 227.632 238.303 228.449C246.469 229.316 254.789 229.572 257.953 242.433L260.25 224.417L256.779 223.957L254.278 223.753C252.747 223.702 251.267 223.855 249.736 224.008L238.048 225.233C237.538 225.284 237.078 225.335 236.568 225.335C233.454 225.335 230.443 224.315 227.993 222.426Z" fill="#08233B"/>
<path opacity="0.06" d="M227.989 222.426C229.724 237.789 233.654 252.896 239.779 267.749C240.085 268.514 240.595 269.229 241.157 269.841L251.671 280.406C238.401 264.074 237.074 245.138 245.036 224.57L245.087 224.519L238.043 225.284C237.533 225.335 237.074 225.387 236.563 225.387C233.45 225.335 230.439 224.315 227.989 222.426Z" fill="url(#paint27_linear_144_3519)"/>
<path opacity="0.13" d="M257.645 286.429C257.645 286.429 270.915 296.432 280.766 285.459L270.252 299.188L257.645 286.429Z" fill="url(#paint28_linear_144_3519)"/>
<path opacity="0.25" d="M247.539 259.072C252.592 259.94 254.021 257.439 254.43 256.265C254.481 256.061 254.532 255.857 254.583 255.652V255.601C255.246 253.203 256.777 251.008 256.88 250.855L256.624 253.049C256.114 256.877 257.39 260.705 259.993 263.512L275.305 279.692C274.743 279.181 258.002 264.329 255.348 259.838C253.919 260.807 252.031 260.552 252.031 260.552C252.847 260.399 253.46 260.195 253.97 259.94C254.481 259.684 254.634 259.072 254.43 258.562C250.908 260.246 247.539 259.072 247.539 259.072Z" fill="#08233B"/>
<path opacity="0.1" d="M220.944 263.359L225.639 285.459C223.342 259.991 227.885 223.549 228.038 222.477C224.874 236.156 221.964 248.966 220.791 260.909C220.688 261.726 220.739 262.543 220.944 263.359Z" fill="url(#paint29_linear_144_3519)"/>
<path opacity="0.12" d="M234.219 277.497C243.763 291.073 246.366 303.629 246.366 303.629L242.742 271.423L241.211 269.892C240.599 269.28 240.139 268.565 239.782 267.8C233.709 252.896 229.625 237.789 227.992 222.579V222.528C227.992 222.477 222.888 261.369 234.219 277.497Z" fill="#08233B"/>
<path opacity="0.1" d="M227.991 295.514C227.991 295.514 230.798 305.313 245.14 306.385L230.134 307.048L227.991 295.514Z" fill="url(#paint30_linear_144_3519)"/>
<g opacity="0.3">
<g opacity="0.3">
<path opacity="0.3" d="M218.549 139.335V149.441C218.549 151.176 217.171 152.605 215.435 152.657C187.109 153.626 163.886 167.917 158.527 186.699C157.761 184.045 157.353 181.289 157.353 178.431C157.353 155.821 182.975 137.345 215.282 136.12C217.069 136.018 218.549 137.498 218.549 139.335Z" fill="url(#paint31_linear_144_3519)"/>
<path opacity="0.3" d="M158.476 186.648C163.835 205.38 187.058 219.67 215.385 220.691C217.12 220.742 218.498 222.171 218.498 223.907V234.012C218.498 235.85 217.018 237.279 215.181 237.228C182.924 236.054 157.251 217.578 157.251 194.917V180.728C157.353 180.728 158.476 186.648 158.476 186.648Z" fill="url(#paint32_linear_144_3519)"/>
</g>
<g opacity="0.3">
<path opacity="0.3" d="M218.549 137.396V147.502C218.549 149.237 217.171 150.666 215.435 150.717C187.109 151.687 163.886 165.978 158.527 184.76C157.761 182.106 157.353 179.35 157.353 176.492C157.353 153.882 182.975 135.406 215.282 134.181C217.069 134.13 218.549 135.61 218.549 137.396Z" fill="url(#paint33_linear_144_3519)"/>
<path opacity="0.3" d="M158.476 184.76C163.835 203.491 187.058 217.782 215.385 218.803C217.12 218.854 218.498 220.283 218.498 222.018V232.124C218.498 233.961 217.018 235.39 215.181 235.339C182.924 234.165 157.251 215.689 157.251 193.028V178.839C157.353 178.839 158.476 184.76 158.476 184.76Z" fill="url(#paint34_linear_144_3519)"/>
</g>
<path opacity="0.3" d="M204.36 141.377C204.411 142.347 205.33 143.163 206.453 143.112C207.576 143.061 208.443 142.245 208.443 141.275C208.443 140.305 207.474 139.489 206.351 139.54C205.228 139.591 204.309 140.407 204.36 141.377Z" fill="url(#paint35_linear_144_3519)"/>
<path opacity="0.3" d="M212.069 148.573C211.967 146.175 209.568 144.337 206.659 144.439C203.75 144.541 201.504 146.583 201.606 148.982C201.606 148.982 203.597 150.156 206.608 148.88C209.568 147.604 212.069 148.573 212.069 148.573Z" fill="url(#paint36_linear_144_3519)"/>
<path opacity="0.9" d="M204.793 140.856C204.764 139.869 205.654 139.043 206.781 139.01C207.908 138.976 208.846 139.749 208.875 140.735C208.904 141.721 208.014 142.547 206.887 142.581C205.76 142.614 204.823 141.842 204.793 140.856Z" fill="white"/>
<path opacity="0.9" d="M212.577 148.063C212.475 145.664 210.076 143.827 207.167 143.929C204.258 144.031 202.012 146.073 202.114 148.471C202.114 148.471 204.105 149.645 207.116 148.369C210.076 147.093 212.577 148.063 212.577 148.063Z" fill="white"/>
<path opacity="0.9" d="M197.983 142.398C197.983 142.398 177.415 146.43 165.88 161.384V164.906C165.88 164.906 182.263 151.534 197.983 149.492V142.398Z" fill="white"/>
</g>
<path d="M0.00267029 107.334V104.782C0.00267029 99.5254 3.57542 94.983 8.6283 93.656L141.942 59.5111V73.5978L0.00267029 107.334Z" fill="#1E88E5"/>
<path d="M140.354 60.9912L8.31577 95.2381C3.41602 96.5141 0.0474243 100.903 0.0474243 105.956V106.518C0.0474243 110.856 3.1608 114.582 7.39703 115.398L27.3533 119.124L150.919 86.3574C143.11 79.9265 139.843 71.3521 140.354 60.9912Z" fill="url(#paint37_linear_144_3519)"/>
<path d="M150.362 86.3064L151.076 291.788L111.725 307.1V133.568L27.3064 119.073L150.362 86.3064Z" fill="url(#paint38_linear_144_3519)"/>
<path d="M0.000976562 105.956V293.217C0.000976562 302.965 7.80997 310.876 17.5584 311.03L63.2894 311.642C67.934 311.693 72.1703 313.632 75.1816 316.695C78.2439 319.757 80.1323 323.993 80.1323 328.638C80.1834 338.029 87.8392 345.634 97.2304 345.634H130.1V127.75L127.752 127.495L6.38086 115.041C4.69657 114.582 3.2675 113.663 2.19569 112.387C1.12386 111.111 0.409302 109.58 0.205139 107.845L0.0520325 106.518L0.000976562 105.956Z" fill="url(#paint39_linear_144_3519)"/>
<path opacity="0.52" d="M0.000976562 180.319V293.166C0.000976562 302.914 7.80997 310.825 17.5584 310.978L63.2894 311.591C67.934 311.642 72.1703 313.581 75.1816 316.644C78.2439 319.706 80.1323 323.942 80.1323 328.587C80.1834 337.978 87.8392 345.583 97.2304 345.583H130.1V307.355C130.1 307.355 123.311 255.244 54.1024 245.394C16.4866 240.086 3.77787 208.238 0.000976562 180.319Z" fill="url(#paint40_linear_144_3519)"/>
<path opacity="0.48" d="M-0.000114441 105.956V184.25C86.2559 242.434 127.802 127.546 127.802 127.546L6.37977 115.041C4.69548 114.582 3.26641 113.663 2.19459 112.387C1.12277 111.111 0.408211 109.58 0.204056 107.845L0.0509415 106.518L-0.000114441 105.956Z" fill="url(#paint41_linear_144_3519)"/>
<path d="M130.099 374.777C130.151 374.829 130.151 374.829 130.099 374.777V374.777Z" fill="url(#paint42_linear_144_3519)"/>
<path opacity="0.77" d="M0.000976562 221.916V293.166C0.000976562 302.914 7.80997 310.825 17.5584 310.978L63.2894 311.591C67.934 311.642 72.1703 313.581 75.1816 316.644C78.2439 319.706 80.1323 323.942 80.1323 328.587C80.1834 337.978 87.8392 345.583 97.2304 345.583H130.1V182.769C71.3026 142.602 25.8778 184.709 0.000976562 221.916Z" fill="url(#paint43_linear_144_3519)"/>
<path d="M113.765 250.089C111.059 250.089 108.866 247.896 108.866 245.19C108.866 242.484 111.059 240.29 113.765 240.29C116.471 240.29 118.665 242.484 118.665 245.19C118.665 247.896 116.471 250.089 113.765 250.089Z" fill="url(#paint44_linear_144_3519)"/>
<path d="M113.765 249.069C111.059 249.069 108.866 246.875 108.866 244.169C108.866 241.463 111.059 239.269 113.765 239.269C116.471 239.269 118.665 241.463 118.665 244.169C118.665 246.875 116.471 249.069 113.765 249.069Z" fill="url(#paint45_radial_144_3519)"/>
<path opacity="0.56" d="M140.661 68.1876L28.5787 98.3004L140.967 69.8719L140.661 68.1876Z" fill="#BCCAD8"/>
<path opacity="0.56" d="M145.46 80.539L12.9621 115.705L145.919 81.2025C145 79.9266 145.46 80.539 145.46 80.539Z" fill="#BCCAD8"/>
<path d="M151.076 291.788L130.099 285.459V300.516L151.076 291.788Z" fill="url(#paint46_linear_144_3519)"/>
<path opacity="0.47" d="M149.035 292.656L151.076 291.788L150.362 86.3064L32.4103 117.746L39.1985 118.767L148.014 89.4708L149.035 292.656Z" fill="#1E88E5"/>
<path opacity="0.48" d="M258.717 236.36H255.501L255.042 223.907C255.042 223.907 255.195 223.804 260.248 224.519L258.717 236.36Z" fill="url(#paint47_linear_144_3519)" fill-opacity="0.44"/>
<path d="M255.245 224.009L255.653 235.492C255.653 235.799 255.908 236.054 256.214 236.054H258.46" stroke="#D2F0FF" stroke-width="0.25" stroke-miterlimit="10" stroke-linecap="round" stroke-dasharray="1 1"/>
<path d="M243.761 225.336L244.934 256.112C245.037 259.123 246.261 261.981 248.354 264.176L274.537 291.533" stroke="#175168" stroke-width="0.5" stroke-miterlimit="10" stroke-linecap="round" stroke-dasharray="2 2"/>
<path d="M244.527 224.876L245.701 255.602C245.803 258.664 247.028 261.522 249.172 263.717L275.253 291.022" stroke="#ADE2F2" stroke-width="0.5" stroke-miterlimit="10" stroke-linecap="round" stroke-dasharray="2 2"/>
<path d="M217.73 330.782L247.639 328.638" stroke="#FFF3F3" stroke-width="0.5" stroke-miterlimit="10" stroke-linecap="round" stroke-dasharray="2 2"/>
<path d="M299.241 300.516L280.765 323.891" stroke="#FFF3F3" stroke-width="0.5" stroke-miterlimit="10" stroke-linecap="round" stroke-dasharray="2 2"/>
<defs>
<linearGradient id="paint0_linear_144_3519" x1="404.826" y1="368.017" x2="269.021" y2="62.2215" gradientUnits="userSpaceOnUse">
<stop stop-color="white"/>
<stop offset="1" stop-color="#E4EDF2"/>
</linearGradient>
<linearGradient id="paint1_linear_144_3519" x1="-79.1868" y1="32.0006" x2="131.451" y2="192.752" gradientUnits="userSpaceOnUse">
<stop stop-color="white"/>
<stop offset="1" stop-color="#E4EDF2"/>
</linearGradient>
<linearGradient id="paint2_linear_144_3519" x1="184.912" y1="306.468" x2="174.64" y2="303.316" gradientUnits="userSpaceOnUse">
<stop offset="0.00558659" stop-color="#55A6E6"/>
<stop offset="0.9944" stop-color="#1E88E5"/>
</linearGradient>
<linearGradient id="paint3_linear_144_3519" x1="179.808" y1="294.93" x2="171.48" y2="295.929" gradientUnits="userSpaceOnUse">
<stop offset="0.00558659" stop-color="#7FB8E6"/>
<stop offset="0.9944" stop-color="#1E88E5"/>
</linearGradient>
<linearGradient id="paint4_linear_144_3519" x1="161.169" y1="294.064" x2="181.982" y2="294.33" gradientUnits="userSpaceOnUse">
<stop stop-color="white"/>
<stop offset="1" stop-color="white"/>
</linearGradient>
<linearGradient id="paint5_linear_144_3519" x1="186.012" y1="295.801" x2="180.602" y2="296.407" gradientUnits="userSpaceOnUse">
<stop stop-color="white"/>
<stop offset="0.3832" stop-color="#FCFEFE"/>
<stop offset="0.6107" stop-color="#F4F9FB"/>
<stop offset="0.7974" stop-color="#E6F0F6"/>
<stop offset="0.9612" stop-color="#D2E5EF"/>
<stop offset="1" stop-color="#CCE1ED"/>
</linearGradient>
<linearGradient id="paint6_linear_144_3519" x1="369.768" y1="213.804" x2="347.88" y2="214.007" gradientUnits="userSpaceOnUse">
<stop offset="0.00558659" stop-color="#55A6E6"/>
<stop offset="0.9944" stop-color="#1E88E5"/>
</linearGradient>
<linearGradient id="paint7_linear_144_3519" x1="359.217" y1="213.576" x2="349.201" y2="213.669" gradientUnits="userSpaceOnUse">
<stop stop-color="white"/>
<stop offset="1" stop-color="#E4EDF2"/>
</linearGradient>
<linearGradient id="paint8_linear_144_3519" x1="368.285" y1="215.744" x2="357.391" y2="215.845" gradientUnits="userSpaceOnUse">
<stop stop-color="white"/>
<stop offset="0.8124" stop-color="#DDEDF5"/>
<stop offset="1" stop-color="#D5E8F2"/>
</linearGradient>
<linearGradient id="paint9_linear_144_3519" x1="258.596" y1="162.101" x2="228.84" y2="162.101" gradientUnits="userSpaceOnUse">
<stop stop-color="#A9CAE5"/>
<stop offset="0.4086" stop-color="#C3D9EB"/>
<stop offset="0.9944" stop-color="#E4EDF2"/>
</linearGradient>
<linearGradient id="paint10_linear_144_3519" x1="242.712" y1="171.264" x2="227.833" y2="171.264" gradientUnits="userSpaceOnUse">
<stop stop-color="#BED3E5"/>
<stop offset="0.9944" stop-color="#D0E6F2"/>
</linearGradient>
<linearGradient id="paint11_linear_144_3519" x1="241.278" y1="153.247" x2="233.008" y2="148.406" gradientUnits="userSpaceOnUse">
<stop stop-color="#F5A287" stop-opacity="0"/>
<stop offset="0.528" stop-color="#E88861" stop-opacity="0.528"/>
<stop offset="1" stop-color="#DE7443"/>
</linearGradient>
<linearGradient id="paint12_linear_144_3519" x1="254.788" y1="158.704" x2="245.507" y2="168.018" gradientUnits="userSpaceOnUse">
<stop offset="0.00558659" stop-color="#1E88E5"/>
<stop offset="0.1625" stop-color="#3995E5" stop-opacity="0.8422"/>
<stop offset="0.4015" stop-color="#5CA5E5" stop-opacity="0.6018"/>
<stop offset="0.6276" stop-color="#75B1E5" stop-opacity="0.3745"/>
<stop offset="0.8332" stop-color="#84B8E5" stop-opacity="0.1677"/>
<stop offset="1" stop-color="#89BBE5" stop-opacity="0"/>
</linearGradient>
<linearGradient id="paint13_linear_144_3519" x1="246.807" y1="159.144" x2="236.967" y2="171.382" gradientUnits="userSpaceOnUse">
<stop offset="0.00558659" stop-color="#1E88E5"/>
<stop offset="0.1625" stop-color="#3995E5" stop-opacity="0.8422"/>
<stop offset="0.4015" stop-color="#5CA5E5" stop-opacity="0.6018"/>
<stop offset="0.6276" stop-color="#75B1E5" stop-opacity="0.3745"/>
<stop offset="0.8332" stop-color="#84B8E5" stop-opacity="0.1677"/>
<stop offset="1" stop-color="#89BBE5" stop-opacity="0"/>
</linearGradient>
<linearGradient id="paint14_linear_144_3519" x1="243.874" y1="132.569" x2="221.784" y2="154.738" gradientUnits="userSpaceOnUse">
<stop stop-color="#DE7443"/>
<stop offset="0.1181" stop-color="#E58258"/>
<stop offset="0.2797" stop-color="#EC906D"/>
<stop offset="0.4605" stop-color="#F19A7C"/>
<stop offset="0.6736" stop-color="#F4A084"/>
<stop offset="1" stop-color="#F5A287"/>
</linearGradient>
<linearGradient id="paint15_linear_144_3519" x1="230.4" y1="125.302" x2="241.976" y2="148.276" gradientUnits="userSpaceOnUse">
<stop stop-color="#DE7443"/>
<stop offset="0.2632" stop-color="#DF7646" stop-opacity="0.7368"/>
<stop offset="0.4953" stop-color="#E37E51" stop-opacity="0.5047"/>
<stop offset="0.7156" stop-color="#E98A63" stop-opacity="0.2844"/>
<stop offset="0.9275" stop-color="#F19B7D" stop-opacity="0.0725021"/>
<stop offset="1" stop-color="#F5A287" stop-opacity="0"/>
</linearGradient>
<linearGradient id="paint16_linear_144_3519" x1="264.143" y1="197.443" x2="226.19" y2="197.443" gradientUnits="userSpaceOnUse">
<stop stop-color="#A9CAE5"/>
<stop offset="0.9944" stop-color="#C6E2F2"/>
</linearGradient>
<linearGradient id="paint17_linear_144_3519" x1="233.16" y1="168.003" x2="240.774" y2="227.511" gradientUnits="userSpaceOnUse">
<stop offset="0.00558659" stop-color="#0B3357" stop-opacity="0.4"/>
<stop offset="0.085053" stop-color="#15426A" stop-opacity="0.3677"/>
<stop offset="0.2916" stop-color="#2C6696" stop-opacity="0.2836"/>
<stop offset="0.4909" stop-color="#3E82B9" stop-opacity="0.2026"/>
<stop offset="0.6784" stop-color="#4B96D2" stop-opacity="0.1263"/>
<stop offset="0.8494" stop-color="#52A2E1" stop-opacity="0.0567274"/>
<stop offset="0.9888" stop-color="#55A6E6" stop-opacity="0"/>
</linearGradient>
<linearGradient id="paint18_linear_144_3519" x1="225.058" y1="163.195" x2="252.992" y2="200.274" gradientUnits="userSpaceOnUse">
<stop offset="0.00558659" stop-color="#1E88E5" stop-opacity="0.8"/>
<stop offset="0.9944" stop-color="#55A6E6" stop-opacity="0"/>
</linearGradient>
<linearGradient id="paint19_linear_144_3519" x1="243.172" y1="196.737" x2="220.573" y2="180.452" gradientUnits="userSpaceOnUse">
<stop stop-color="#BED3E5"/>
<stop offset="0.9944" stop-color="#D0E6F2"/>
</linearGradient>
<linearGradient id="paint20_linear_144_3519" x1="199.479" y1="183.98" x2="197.101" y2="182.266" gradientUnits="userSpaceOnUse">
<stop stop-color="#DE7443"/>
<stop offset="0.2632" stop-color="#DF7646" stop-opacity="0.7368"/>
<stop offset="0.4953" stop-color="#E37E51" stop-opacity="0.5047"/>
<stop offset="0.7156" stop-color="#E98A63" stop-opacity="0.2844"/>
<stop offset="0.9275" stop-color="#F19B7D" stop-opacity="0.0725021"/>
<stop offset="1" stop-color="#F5A287" stop-opacity="0"/>
</linearGradient>
<linearGradient id="paint21_linear_144_3519" x1="187.451" y1="168.878" x2="187.149" y2="166.049" gradientUnits="userSpaceOnUse">
<stop stop-color="white"/>
<stop offset="1" stop-color="#E4EDF2"/>
</linearGradient>
<radialGradient id="paint22_radial_144_3519" cx="0" cy="0" r="1" gradientUnits="userSpaceOnUse" gradientTransform="translate(258.592 334.044) rotate(180) scale(125.587 8.19312)">
<stop stop-color="#B6C8D1"/>
<stop offset="0.1107" stop-color="#BCCDD6" stop-opacity="0.8887"/>
<stop offset="0.6721" stop-color="#D9E4EA" stop-opacity="0.3241"/>
<stop offset="0.9944" stop-color="#E4EDF2" stop-opacity="0"/>
</radialGradient>
<linearGradient id="paint23_linear_144_3519" x1="239.658" y1="316.332" x2="238.237" y2="303.018" gradientUnits="userSpaceOnUse">
<stop stop-color="#F59A7D" stop-opacity="0"/>
<stop offset="0.2928" stop-color="#F18D68" stop-opacity="0.2928"/>
<stop offset="0.8935" stop-color="#E86B33" stop-opacity="0.8935"/>
<stop offset="1" stop-color="#E66529"/>
</linearGradient>
<linearGradient id="paint24_linear_144_3519" x1="280.015" y1="306.244" x2="277.267" y2="280.499" gradientUnits="userSpaceOnUse">
<stop stop-color="#F59A7D" stop-opacity="0"/>
<stop offset="0.2928" stop-color="#F18D68" stop-opacity="0.2928"/>
<stop offset="0.8935" stop-color="#E86B33" stop-opacity="0.8935"/>
<stop offset="1" stop-color="#E66529"/>
</linearGradient>
<linearGradient id="paint25_linear_144_3519" x1="280.76" y1="260.807" x2="228.001" y2="260.807" gradientUnits="userSpaceOnUse">
<stop offset="0.00558659" stop-color="#1E88E5"/>
<stop offset="0.9944" stop-color="#55A6E6"/>
</linearGradient>
<linearGradient id="paint26_linear_144_3519" x1="246.777" y1="264.755" x2="220.733" y2="264.755" gradientUnits="userSpaceOnUse">
<stop offset="0.00558659" stop-color="#1E88E5"/>
<stop offset="0.9944" stop-color="#55A6E6"/>
</linearGradient>
<linearGradient id="paint27_linear_144_3519" x1="251.676" y1="251.434" x2="227.999" y2="251.434" gradientUnits="userSpaceOnUse">
<stop stop-color="white"/>
<stop offset="1" stop-color="#E4EDF2"/>
</linearGradient>
<linearGradient id="paint28_linear_144_3519" x1="280.76" y1="292.318" x2="257.623" y2="292.318" gradientUnits="userSpaceOnUse">
<stop stop-color="white"/>
<stop offset="1" stop-color="#E4EDF2"/>
</linearGradient>
<linearGradient id="paint29_linear_144_3519" x1="227.992" y1="253.963" x2="220.731" y2="253.963" gradientUnits="userSpaceOnUse">
<stop stop-color="white"/>
<stop offset="1" stop-color="#E4EDF2"/>
</linearGradient>
<linearGradient id="paint30_linear_144_3519" x1="245.168" y1="301.292" x2="227.996" y2="301.292" gradientUnits="userSpaceOnUse">
<stop stop-color="white"/>
<stop offset="1" stop-color="#E4EDF2"/>
</linearGradient>
<linearGradient id="paint31_linear_144_3519" x1="218.555" y1="161.38" x2="157.327" y2="161.38" gradientUnits="userSpaceOnUse">
<stop stop-color="#1E88E5"/>
<stop offset="1" stop-color="white"/>
</linearGradient>
<linearGradient id="paint32_linear_144_3519" x1="218.555" y1="208.988" x2="157.328" y2="208.988" gradientUnits="userSpaceOnUse">
<stop stop-color="#1E88E5"/>
<stop offset="1" stop-color="white"/>
</linearGradient>
<linearGradient id="paint33_linear_144_3519" x1="218.555" y1="159.471" x2="157.327" y2="159.471" gradientUnits="userSpaceOnUse">
<stop stop-color="#DBDBDB"/>
<stop offset="0.0385923" stop-color="#B9CCDD"/>
<stop offset="0.0887008" stop-color="#95BCDF"/>
<stop offset="0.1451" stop-color="#75AEE0"/>
<stop offset="0.2074" stop-color="#59A2E2"/>
<stop offset="0.2778" stop-color="#4398E3"/>
<stop offset="0.3601" stop-color="#3291E4"/>
<stop offset="0.4617" stop-color="#278CE5"/>
<stop offset="0.6043" stop-color="#2089E5"/>
<stop offset="1" stop-color="#1E88E5"/>
</linearGradient>
<linearGradient id="paint34_linear_144_3519" x1="218.555" y1="207.078" x2="157.328" y2="207.078" gradientUnits="userSpaceOnUse">
<stop stop-color="#DBDBDB"/>
<stop offset="0.0385923" stop-color="#B9CCDD"/>
<stop offset="0.0887008" stop-color="#95BCDF"/>
<stop offset="0.1451" stop-color="#75AEE0"/>
<stop offset="0.2074" stop-color="#59A2E2"/>
<stop offset="0.2778" stop-color="#4398E3"/>
<stop offset="0.3601" stop-color="#3291E4"/>
<stop offset="0.4617" stop-color="#278CE5"/>
<stop offset="0.6043" stop-color="#2089E5"/>
<stop offset="1" stop-color="#1E88E5"/>
</linearGradient>
<linearGradient id="paint35_linear_144_3519" x1="208.371" y1="141.277" x2="204.334" y2="141.397" gradientUnits="userSpaceOnUse">
<stop offset="0.00558659" stop-color="#55A6E6"/>
<stop offset="0.9944" stop-color="#1E88E5"/>
</linearGradient>
<linearGradient id="paint36_linear_144_3519" x1="212.02" y1="146.79" x2="201.545" y2="147.101" gradientUnits="userSpaceOnUse">
<stop offset="0.00558659" stop-color="#55A6E6"/>
<stop offset="0.9944" stop-color="#1E88E5"/>
</linearGradient>
<linearGradient id="paint37_linear_144_3519" x1="150.825" y1="90.0435" x2="-0.00298357" y2="90.0435" gradientUnits="userSpaceOnUse">
<stop stop-color="white"/>
<stop offset="1" stop-color="#E4EDF2"/>
</linearGradient>
<linearGradient id="paint38_linear_144_3519" x1="11.9987" y1="177.479" x2="157.611" y2="201.018" gradientUnits="userSpaceOnUse">
<stop stop-color="white"/>
<stop offset="1" stop-color="#E4EDF2"/>
</linearGradient>
<linearGradient id="paint39_linear_144_3519" x1="130.12" y1="225.761" x2="0.00102574" y2="225.761" gradientUnits="userSpaceOnUse">
<stop offset="0.00558659" stop-color="#55A6E6"/>
<stop offset="0.9944" stop-color="#1E88E5"/>
</linearGradient>
<linearGradient id="paint40_linear_144_3519" x1="130.12" y1="262.958" x2="0.00102574" y2="262.958" gradientUnits="userSpaceOnUse">
<stop offset="0.00558659" stop-color="#1B7BCF"/>
<stop offset="0.3249" stop-color="#1D7DD0" stop-opacity="0.6771"/>
<stop offset="0.4908" stop-color="#2582D3" stop-opacity="0.5093"/>
<stop offset="0.6214" stop-color="#338BD8" stop-opacity="0.3772"/>
<stop offset="0.7335" stop-color="#4698DF" stop-opacity="0.2638"/>
<stop offset="0.8339" stop-color="#5EA9E9" stop-opacity="0.1623"/>
<stop offset="0.9245" stop-color="#7CBEF4" stop-opacity="0.0707511"/>
<stop offset="0.9944" stop-color="#99D2FF" stop-opacity="0"/>
</linearGradient>
<linearGradient id="paint41_linear_144_3519" x1="127.781" y1="153.31" x2="-5.72847e-05" y2="153.31" gradientUnits="userSpaceOnUse">
<stop offset="0.00558659" stop-color="#1E88E5"/>
<stop offset="0.3271" stop-color="#2089E5" stop-opacity="0.6748"/>
<stop offset="0.4941" stop-color="#288EE7" stop-opacity="0.5059"/>
<stop offset="0.6256" stop-color="#3696EA" stop-opacity="0.373"/>
<stop offset="0.7386" stop-color="#49A2EE" stop-opacity="0.2587"/>
<stop offset="0.8396" stop-color="#61B0F3" stop-opacity="0.1566"/>
<stop offset="0.9307" stop-color="#7FC2FA" stop-opacity="0.0644282"/>
<stop offset="0.9944" stop-color="#99D2FF" stop-opacity="0"/>
</linearGradient>
<linearGradient id="paint42_linear_144_3519" x1="130.146" y1="374.796" x2="130.115" y2="374.796" gradientUnits="userSpaceOnUse">
<stop offset="0.00558659" stop-color="#1E88E5"/>
<stop offset="0.3271" stop-color="#2089E5" stop-opacity="0.6748"/>
<stop offset="0.4941" stop-color="#288EE7" stop-opacity="0.5059"/>
<stop offset="0.6256" stop-color="#3696EA" stop-opacity="0.373"/>
<stop offset="0.7386" stop-color="#49A2EE" stop-opacity="0.2587"/>
<stop offset="0.8396" stop-color="#61B0F3" stop-opacity="0.1566"/>
<stop offset="0.9307" stop-color="#7FC2FA" stop-opacity="0.0644282"/>
<stop offset="0.9944" stop-color="#99D2FF" stop-opacity="0"/>
</linearGradient>
<linearGradient id="paint43_linear_144_3519" x1="130.12" y1="256.024" x2="0.00102574" y2="256.024" gradientUnits="userSpaceOnUse">
<stop offset="0.00558659" stop-color="#1E88E5"/>
<stop offset="0.3271" stop-color="#2089E5" stop-opacity="0.6748"/>
<stop offset="0.4941" stop-color="#288EE7" stop-opacity="0.5059"/>
<stop offset="0.6256" stop-color="#3696EA" stop-opacity="0.373"/>
<stop offset="0.7386" stop-color="#49A2EE" stop-opacity="0.2587"/>
<stop offset="0.8396" stop-color="#61B0F3" stop-opacity="0.1566"/>
<stop offset="0.9307" stop-color="#7FC2FA" stop-opacity="0.0644282"/>
<stop offset="0.9944" stop-color="#99D2FF" stop-opacity="0"/>
</linearGradient>
<linearGradient id="paint44_linear_144_3519" x1="107.591" y1="239.111" x2="115.62" y2="246.965" gradientUnits="userSpaceOnUse">
<stop offset="0.00558659" stop-color="#498EC4"/>
<stop offset="0.9944" stop-color="#186DB8"/>
</linearGradient>
<radialGradient id="paint45_radial_144_3519" cx="0" cy="0" r="1" gradientUnits="userSpaceOnUse" gradientTransform="translate(113.791 244.154) rotate(180) scale(4.8903)">
<stop stop-color="white"/>
<stop offset="0.2955" stop-color="#FCFEFE"/>
<stop offset="0.5243" stop-color="#F2F9FC"/>
<stop offset="0.7307" stop-color="#E2F1F9"/>
<stop offset="0.9228" stop-color="#CBE6F4"/>
<stop offset="1" stop-color="#BFE0F2"/>
</radialGradient>
<linearGradient id="paint46_linear_144_3519" x1="128.108" y1="292.657" x2="149.196" y2="296.066" gradientUnits="userSpaceOnUse">
<stop offset="0.00558659" stop-color="#55A6E6"/>
<stop offset="0.9944" stop-color="#1E88E5"/>
</linearGradient>
<linearGradient id="paint47_linear_144_3519" x1="260.231" y1="230.102" x2="255.016" y2="230.102" gradientUnits="userSpaceOnUse">
<stop stop-color="#A9CAE5"/>
<stop offset="0.4086" stop-color="#C3D9EB"/>
<stop offset="0.9944" stop-color="#E4EDF2"/>
</linearGradient>
</defs>
</svg>
