<svg width="30" height="32" viewBox="0 0 30 32" fill="none" xmlns="http://www.w3.org/2000/svg">
<path d="M19.9729 0.723907C17.3382 0.724093 14.8115 1.78984 12.9485 3.68673C11.0855 5.58362 10.0388 8.1563 10.0386 10.8389V11.0769H0.0698242V31.3909H20.2823V20.9469C22.893 20.8705 25.3692 19.7503 27.1746 17.8288C28.9801 15.9072 29.9696 13.3389 29.9289 10.68C29.8882 8.02101 28.8206 5.48536 26.9573 3.62198C25.0939 1.7586 22.5847 0.717438 19.9729 0.723907ZM3.50732 27.8909V14.5769H10.0386V20.9539H16.8448V27.8909H3.50732ZM20.2823 17.4469C20.1792 17.4539 20.0761 17.4539 19.9729 17.4539H13.4761V10.8389C13.4762 9.54402 13.8495 8.27764 14.5498 7.19676C15.2502 6.11589 16.2466 5.26805 17.4157 4.75838C18.5848 4.2487 19.8752 4.0996 21.1267 4.32956C22.3783 4.55951 23.536 5.15841 24.4564 6.052C25.3768 6.94559 26.0194 8.09458 26.3045 9.35651C26.5896 10.6184 26.5046 11.9378 26.0602 13.1511C25.6158 14.3643 24.8314 15.4181 23.8043 16.1817C22.7773 16.9453 21.5526 17.3852 20.2823 17.4469Z" fill="#3A86FF"/>
</svg>
