<?xml version="1.0" encoding="utf-8"?>
<!-- Generator: Adobe Illustrator 23.0.1, SVG Export Plug-In . SVG Version: 6.00 Build 0)  -->
<svg version="1.1" id="Layer_1" xmlns="http://www.w3.org/2000/svg" xmlns:xlink="http://www.w3.org/1999/xlink" x="0px" y="0px"
	 viewBox="0 0 742 188.4" style="enable-background:new 0 0 742 188.4;" xml:space="preserve">
<style type="text/css">
	.st0{fill:#D1D2D3;}
	.st1{fill:#27A8E0;}
</style>
<g>
	<g>
		<path d="M115.5,121.4c6.9,0,12.5-4.8,15.7-10.9c1.5-3.1,3.4-7.8,3.4-12.1c0-4.4-0.9-10.9-2.5-17.5l-0.5-0.3
			c-3.5,2.6-6.7,5.7-9.7,8.8c2,5.6,3.6,11.8,3.6,15.5c0,2.8-2.8,4.4-5.9,4.4c-5.3,0-12-3-12-10.7c0-2.6,0.3-5.9,1.1-9.4l-0.4-0.5
			l-6.7,3.4l-2.7,9.2c-1.1,3.5-3.4,5.7-6.3,7.3c-2.6,1.4-5.5,2-7.4,2c-6.9,0-7.6-5.5-9.1-8.4c-2-5.1-4-9.6-7.1-14.3l0,0h-0.6
			c-3,3.5-5.5,6.8-7.4,10.1c6.3,10,10.4,15,11.5,25.9c-3,10-19.7,18.5-33.2,18.5c-14.6,0-27.2-7.4-27.2-22.9c0-5.7,2-11.5,5.3-17.7
			l-4.2-1.7c-5.2,6.8-8.6,16.3-8.6,26.5c0,16.6,10.8,29,32.4,29c15.4,0,31.9-7.6,37.5-18.5c2-4,3.4-8.2,3.8-14.4h2.9
			c9.3,0,15.2-4.3,18.9-8.9h0.3C104.5,118.8,110.2,121.4,115.5,121.4z"/>
		<path d="M149.4,76.4l-0.7-0.1c-2.7,3.9-5.3,7.8-7.9,11.8c4.9,6.3,9.3,13.3,13.4,20.8c0.7,1.5,1.5,3.4,1.5,5c0,1.1-0.3,2.6-1.2,4.2
			c-7.3,14-23.3,25.5-39,25.5c-4.9,0-8.9-0.8-12.3-1.7l-1.2,3.1c10.9,4.7,20.3,7.3,28.5,7.3c5.6,0,11.6-2.5,18.3-8.6
			c8.6-8.9,14-17.9,14-26.3v-10.4c0-8.1-2.6-13.3-5.6-18L149.4,76.4z"/>
		<path d="M213.2,78.5c-7.4-7.8-17.6-14.8-26.6-19.5l-0.9,0.1c-2.6,3.5-5.7,8.4-5.7,10.8c0,1.1,0.9,2.4,3.6,3.5
			c7.9,3.4,16.4,8.6,22.7,14.3c6.6,6.2,10.5,12.9,10.5,18c0,0.7-0.8,1.5-2.2,2.2c-8.1,4-15.5,6.2-24.2,6.2
			c-13.9,0-17.9-6.4-18.3-14.6v-0.1h-4.5c-0.5,3-0.5,5.3-0.5,6.9c0,14,8.6,20,21.3,20c10.5,0,21.1-3.9,30.9-8.8
			c2.8-5.1,4.6-10.7,4.6-16.6C224.2,93,220,85.7,213.2,78.5z"/>
		<path d="M239.9,107.8c0,6.3-0.1,13-1.2,18.9l1.4,0.6c6.4-6.1,9.4-10,9.8-15.2c0.5-4.2,0.8-9.9,0.8-15.6c0-22-0.6-45.9-2.9-66.5
			l-1-0.3c-3.4,2.6-7.8,6.6-10.9,10c1.8,16.4,4,41.5,4,58.8L239.9,107.8L239.9,107.8L239.9,107.8z"/>
		<path d="M330.7,39.8c-4.4-3.9-8.8-7.3-13.4-10.1c-3,2.9-6,6.3-9,9.6c4.5,3.2,8.7,6.3,13.1,9.7C325.2,46.3,328.2,43.2,330.7,39.8z"
			/>
		<path d="M343.3,78.3c-5.1-11.4-12.3-18.7-21.2-18.7c-5,0-9.9,2.5-14.3,6.3c-5.3,4.7-8.3,11.6-8.3,18.6c0,2.5,0.6,4.8,1.6,6.8
			c3.9,7.3,13.8,10.2,26.6,10.2c4,0,8.6,0,12.6-0.3c0.3,0.6,0.3,1.4,0.3,2c0,2.5-6,6.1-13.1,7.9c-6.3,1.6-14.6,1.9-24.3,1.9v-0.1
			h-9.4c-0.5,0-1,0-1.4,0.1h-0.4c-12.9,0-18.7-7.4-25-20.4l-0.8,0.1c-1.9,3.1-3.9,6.6-6.1,11c2.6,4.6,5.3,8.8,9.7,14
			c1.4,1.6,2.5,3.1,3,4.3c-2.5,14-22,28.3-36.9,28.3c-5.7,0-9.8-0.9-12.8-2l-1.6,3.1c9.2,4.2,19.5,7.4,27.8,7.4
			c8.2,0,17.8-5.7,26.6-18.8c3-4.6,4.5-10.2,4.5-14.6c0-1.1-0.2-2.2-0.3-3.4h0.4c2.7,2.1,6.3,3,11.2,3h2.3V125h8.9
			c19.8,0,32.6-2.6,39.7-9.3c3.9-3.8,5.5-8.8,5.5-14.9C347.9,91.8,346,84.6,343.3,78.3z M306.3,80.5c0-3.6,6-8.4,13.4-8.4
			c9,0,16.6,9.3,18.9,18.3C321,90.5,306.3,88.1,306.3,80.5z"/>
	</g>
	<g>
		<g>
			<path class="st0" d="M465.4,29.7c0.5-1.7-0.9-3.4-3.1-3.7c-4.3-0.6-8.6-1.1-12.9-1.4c-2.2-0.1-4.4,1.1-5,2.8
				c-1.1,3.2-2.2,6.4-3.3,9.6c-0.6,1.7,0.8,3.1,3.1,3.2c4.5,0.3,9,0.9,13.5,1.6c2.3,0.3,4.6-0.6,5-2.4
				C463.5,36.2,464.4,32.9,465.4,29.7z"/>
			<path class="st0" d="M489.2,35.8c0.3-1.7-1.1-3.7-3.3-4.4c-4.3-1.3-8.5-2.4-12.8-3.4c-2.2-0.5-4.3,0.5-4.8,2.2
				c-0.9,3.2-1.8,6.6-2.6,9.9c-0.5,1.7,1,3.4,3.3,3.9c4.5,1,8.9,2.2,13.4,3.5c2.3,0.7,4.4,0,4.7-1.8
				C487.8,42.5,488.5,39.1,489.2,35.8z"/>
			<path class="st0" d="M512.7,45.4c0.3-1.7-1.3-4-3.4-5c-4.2-2-8.4-3.7-12.6-5.4c-2.1-0.8-4.2,0-4.5,1.7c-0.6,3.3-1.3,6.7-2,10
				c-0.3,1.7,1.2,3.7,3.5,4.6c4.4,1.7,8.9,3.5,13.2,5.4c2.3,1,4.3,0.5,4.4-1.2C511.8,52.2,512.3,48.8,512.7,45.4z"/>
			<path class="st0" d="M535.8,58.8c0.1-1.7-1.5-4.3-3.5-5.6c-4.1-2.6-8.2-5.1-12.3-7.3c-2.1-1.2-4-0.6-4.2,1.1
				c-0.4,3.4-0.8,6.7-1.2,10.1c-0.3,1.7,1.4,4,3.7,5.2c4.4,2.3,8.7,4.7,12.9,7.4c2.2,1.4,4,1.1,4.1-0.6
				C535.3,65.5,535.6,62.2,535.8,58.8z"/>
			<path class="st0" d="M460.3,47.9c0.5-1.7-1-3.4-3.3-3.7c-4.6-0.7-9-1.2-13.6-1.6c-2.3-0.2-4.7,1.1-5.2,2.7
				c-1.1,3.2-2.2,6.4-3.3,9.6c-0.6,1.7,0.9,3.1,3.3,3.3c4.7,0.4,9.4,1,14.2,1.8c2.4,0.4,4.7-0.6,5.2-2.3
				C458.5,54.4,459.4,51.2,460.3,47.9z"/>
			<path class="st0" d="M455.2,66.1c0.5-1.7-1.1-3.4-3.5-3.8c-4.7-0.8-9.5-1.4-14.2-1.8c-2.4-0.3-4.9,1-5.4,2.6
				c-1.1,3.2-2.2,6.4-3.3,9.6c-0.6,1.7,1,3.1,3.5,3.4c5,0.5,9.9,1.1,14.8,2c2.6,0.4,5-0.5,5.4-2.3C453.4,72.7,454.3,69.4,455.2,66.1
				z"/>
			<path class="st0" d="M481.6,72.8c0.3-1.7-1.3-3.7-3.7-4.4c-4.7-1.4-9.4-2.6-14.2-3.7c-2.4-0.5-4.7,0.4-5.2,2.1
				c-0.9,3.3-1.8,6.6-2.6,9.9c-0.5,1.7,1.2,3.5,3.7,4c5,1.1,9.9,2.4,14.8,3.9c2.6,0.8,4.9,0,5.2-1.7
				C480.3,79.5,480.9,76.2,481.6,72.8z"/>
			<path class="st0" d="M507.7,83c0.3-1.7-1.5-4-3.9-5c-4.7-2-9.3-3.9-14-5.6c-2.4-0.9-4.6-0.1-5,1.6c-0.6,3.3-1.3,6.7-2,10
				c-0.3,1.7,1.4,3.8,3.9,4.7c4.9,1.7,9.8,3.6,14.6,5.7c2.5,1.1,4.7,0.5,4.9-1.2C506.8,89.7,507.3,86.4,507.7,83z"/>
			<path class="st0" d="M450.1,84.4c0.5-1.7-1.2-3.4-3.7-3.9c-5-0.8-9.9-1.5-14.9-2c-2.6-0.3-5,0.9-5.6,2.6
				c-1.1,3.2-2.2,6.4-3.3,9.6c-0.6,1.7,1.1,3.1,3.7,3.4c5.1,0.5,10.3,1.3,15.5,2.2c2.6,0.5,5.1-0.5,5.6-2.1
				C448.3,90.9,449.2,87.6,450.1,84.4z"/>
			<path class="st0" d="M445,102.6c0.5-1.7-1.3-3.5-4-4c-5.2-0.9-10.4-1.7-15.6-2.3c-2.6-0.3-5.2,0.9-5.8,2.6
				c-1.1,3.2-2.2,6.4-3.3,9.6c-0.6,1.7,1.2,3.2,3.9,3.5c5.4,0.6,10.8,1.4,16.1,2.4c2.8,0.5,5.4-0.4,5.8-2.1
				C443.2,109.1,444.1,105.9,445,102.6z"/>
		</g>
		<g>
			<path class="st0" d="M603.7,46.9c-0.3-1.7-2.1-2.3-4.2-1.1c-4.1,2.3-8.3,4.7-12.3,7.3c-2.1,1.4-3.7,3.9-3.5,5.6
				c0.3,3.4,0.4,6.8,0.6,10.2c0.1,1.7,2,2,4.1,0.6c4.3-2.6,8.6-5.1,12.9-7.4c2.3-1.2,3.8-3.5,3.7-5.2
				C604.5,53.7,604.1,50.3,603.7,46.9z"/>
			<path class="st0" d="M627.1,36.8c-0.3-1.7-2.4-2.5-4.5-1.7c-4.2,1.6-8.4,3.4-12.6,5.4c-2.1,1-3.7,3.2-3.4,5
				c0.5,3.4,0.9,6.7,1.4,10.1c0.3,1.7,2.3,2.3,4.4,1.2c4.4-2,8.8-3.8,13.2-5.4c2.3-0.8,3.8-2.9,3.5-4.6
				C628.4,43.4,627.8,40.2,627.1,36.8z"/>
			<path class="st0" d="M650.9,30.2c-0.5-1.7-2.6-2.7-4.8-2.2c-4.3,0.9-8.6,2.1-12.8,3.4c-2.2,0.6-3.6,2.6-3.3,4.4
				c0.7,3.3,1.4,6.7,2.1,10c0.3,1.7,2.5,2.5,4.7,1.8c4.4-1.4,8.9-2.6,13.4-3.5c2.3-0.5,3.8-2.3,3.3-3.9
				C652.7,36.8,651.8,33.5,650.9,30.2z"/>
			<path class="st0" d="M606,65.7c-0.3-1.7-2.2-2.3-4.4-1.1c-4.4,2.3-8.7,4.7-13.1,7.4c-2.2,1.4-3.9,3.9-3.8,5.6
				c0.3,3.4,0.4,6.8,0.6,10.2c0.1,1.7,2.1,2,4.4,0.6c4.5-2.6,9-5.1,13.7-7.4c2.4-1.2,4.1-3.5,3.8-5.2
				C606.8,72.5,606.4,69.1,606,65.7z"/>
			<path class="st0" d="M681.1,45.3c-0.6-1.7-2.9-2.9-5.2-2.7c-4.6,0.3-9.1,0.9-13.6,1.6c-2.3,0.3-3.8,2.1-3.3,3.7
				c0.9,3.2,1.8,6.6,2.7,9.8c0.5,1.7,2.8,2.6,5.2,2.3c4.7-0.8,9.4-1.4,14.2-1.8c2.4-0.3,3.9-1.7,3.3-3.3
				C683.4,51.7,682.2,48.5,681.1,45.3z"/>
			<path class="st0" d="M608.3,84.5c-0.3-1.7-2.3-2.3-4.7-1.1c-4.6,2.3-9.2,4.8-13.7,7.4c-2.3,1.4-4.1,3.9-4,5.7
				c0.3,3.4,0.4,6.8,0.6,10.2c0.1,1.7,2.1,2,4.6,0.6c4.7-2.6,9.5-5.1,14.3-7.5c2.5-1.2,4.3-3.5,4.1-5.2
				C609.2,91.2,608.8,87.9,608.3,84.5z"/>
			<path class="st0" d="M687.3,63.2c-0.6-1.7-3-2.9-5.4-2.6c-4.7,0.4-9.5,1-14.2,1.8c-2.4,0.4-4,2.1-3.5,3.8
				c0.9,3.2,1.8,6.6,2.7,9.8c0.5,1.7,2.9,2.6,5.4,2.3c5-0.8,9.9-1.5,14.8-2c2.6-0.3,4.1-1.7,3.5-3.4
				C689.5,69.6,688.4,66.4,687.3,63.2z"/>
			<path class="st0" d="M610.7,103.3c-0.3-1.7-2.4-2.2-4.9-1c-4.9,2.4-9.6,4.9-14.4,7.5c-2.4,1.4-4.3,3.9-4.2,5.7
				c0.3,3.4,0.4,6.8,0.6,10.2c0.1,1.7,2.3,2,4.8,0.6c5-2.6,10-5.2,15-7.6c2.6-1.2,4.5-3.5,4.3-5.2
				C611.5,110,611.1,106.6,610.7,103.3z"/>
			<path class="st0" d="M693.5,81.1c-0.6-1.7-3.1-2.9-5.6-2.6c-5,0.5-9.9,1.2-14.9,2c-2.6,0.4-4.2,2.2-3.7,3.9
				c0.9,3.2,1.8,6.6,2.7,9.8c0.5,1.7,2.9,2.6,5.6,2.1c5.2-0.9,10.3-1.7,15.5-2.2c2.6-0.3,4.3-1.8,3.7-3.4
				C695.6,87.5,694.5,84.3,693.5,81.1z"/>
			<path class="st0" d="M613,122c-0.3-1.7-2.5-2.2-5.1-1c-5.1,2.4-10.1,4.9-15.1,7.6c-2.6,1.4-4.5,4-4.4,5.7
				c0.3,3.4,0.4,6.8,0.6,10.2c0.1,1.7,2.3,2,5,0.6c5.2-2.7,10.4-5.2,15.7-7.6c2.7-1.2,4.7-3.5,4.5-5.3
				C613.9,128.8,613.4,125.4,613,122z"/>
			<path class="st0" d="M641.7,111.1c-0.3-1.7-2.8-2.4-5.4-1.5c-5.1,1.8-10.3,3.7-15.4,5.8c-2.6,1.1-4.6,3.4-4.3,5.1
				c0.5,3.4,0.9,6.7,1.4,10.1c0.3,1.7,2.6,2.2,5.3,1.1c5.3-2.1,10.7-4.1,16-5.9c2.7-0.9,4.7-3,4.4-4.7
				C643,117.7,642.3,114.4,641.7,111.1z"/>
			<path class="st0" d="M670.6,103.3c-0.5-1.7-2.9-2.6-5.6-2c-5.2,1.2-10.4,2.6-15.6,4.1c-2.6,0.8-4.5,2.9-4.1,4.6
				c0.7,3.3,1.4,6.7,2.1,10c0.3,1.7,2.9,2.4,5.6,1.6c5.4-1.5,10.8-2.9,16.2-4.2c2.8-0.6,4.6-2.5,4.1-4.1
				C672.4,109.9,671.5,106.6,670.6,103.3z"/>
		</g>
		<g>
			<path class="st1" d="M444.2,19c-0.6,1.7-2.9,2.9-5,2.9c-4.3,0-8.6,0.3-12.9,0.8c-2.2,0.3-3.4-0.8-2.8-2.4
				c1.3-3.1,2.6-6.3,3.9-9.4c0.6-1.6,2.9-3.2,5-3.5c4.1-0.5,8.3-0.9,12.5-1c2.1,0,3.4,1.2,2.8,2.9C446.4,12.6,445.3,15.8,444.2,19z"
				/>
			<path class="st1" d="M470.5,11.4c0.5-1.7-0.8-3.3-2.9-3.6c-4.1-0.6-8.1-1-12.3-1.2c-2.1-0.1-4.3,1.2-4.9,2.9
				c-1.1,3.2-2.2,6.4-3.3,9.6c-0.6,1.7,0.8,3,2.9,3.2c4.3,0.3,8.6,0.7,12.9,1.4c2.2,0.3,4.3-0.7,4.8-2.4
				C468.6,18,469.5,14.7,470.5,11.4z"/>
			<path class="st1" d="M492.9,17.2c0.3-1.7-1-3.7-3.1-4.3c-4-1.2-8-2.4-12.1-3.2c-2.1-0.5-4.1,0.6-4.6,2.3
				c-0.9,3.2-1.8,6.6-2.6,9.9c-0.5,1.7,0.9,3.4,3.1,3.9c4.3,0.9,8.5,2.1,12.7,3.4c2.1,0.6,4.2-0.1,4.6-1.8
				C491.6,23.9,492.3,20.5,492.9,17.2z"/>
			<path class="st1" d="M515.2,26.8c0.3-1.7-1.2-4-3.2-5c-4-2-7.9-3.7-11.9-5.2c-2-0.8-4,0-4.3,1.7c-0.6,3.3-1.3,6.7-2,10
				c-0.3,1.7,1.1,3.7,3.2,4.6c4.2,1.6,8.4,3.4,12.5,5.3c2.1,1,4,0.5,4.3-1.3C514.3,33.5,514.7,30.1,515.2,26.8z"/>
			<path class="st1" d="M537,39.9c0.1-1.7-1.4-4.3-3.4-5.6c-3.9-2.6-7.8-5-11.7-7.3c-2-1.1-3.8-0.6-4,1.1c-0.4,3.4-0.8,6.7-1.2,10.1
				c-0.3,1.7,1.3,4,3.4,5.1c4.1,2.3,8.2,4.7,12.3,7.3c2.1,1.4,3.8,1.1,4-0.6C536.5,46.7,536.8,43.3,537,39.9z"/>
			<path class="st1" d="M558.2,56.9c0-1.7-1.5-4.6-3.4-6.3c-3.7-3.3-7.5-6.4-11.3-9.3c-2-1.5-3.6-1.2-3.7,0.5
				c-0.2,3.4-0.4,6.8-0.6,10.2c-0.1,1.7,1.5,4.3,3.5,5.8c4,2.9,8,6,11.9,9.4c2,1.7,3.6,1.7,3.6,0C558.1,63.7,558.2,60.3,558.2,56.9z
				"/>
			<path class="st1" d="M441.3,27.3c0.6-1.7-0.8-3-2.9-2.9c-4.3,0-8.7,0.3-13,0.8c-2.2,0.3-4.6,1.8-5.2,3.4
				c-1.3,3.1-2.6,6.3-3.9,9.4c-0.6,1.6,0.6,2.6,2.9,2.5c4.5-0.4,9-0.6,13.5-0.6c2.3,0,4.7-1.2,5.2-2.9
				C439,33.7,440.2,30.5,441.3,27.3z"/>
			<path class="st1" d="M558,75.9c0-1.7-1.6-4.6-3.6-6.3c-4-3.3-7.9-6.4-11.9-9.4c-2.1-1.5-3.8-1.2-3.9,0.5
				c-0.2,3.4-0.4,6.8-0.6,10.2c-0.1,1.7,1.6,4.3,3.7,5.8c4.2,2.9,8.4,6.1,12.5,9.4c2.1,1.7,3.8,1.7,3.8,0
				C558,82.7,558,79.2,558,75.9z"/>
			<path class="st1" d="M435,45.1c0.6-1.7-0.8-3-3.1-3.1c-4.6,0-9.1,0.2-13.6,0.5c-2.3,0.2-4.7,1.7-5.4,3.4
				c-1.3,3.1-2.6,6.3-3.9,9.4c-0.6,1.6,0.7,2.7,3.1,2.6c4.7-0.3,9.4-0.4,14.1-0.3c2.4,0,4.9-1.2,5.4-2.9
				C432.7,51.5,433.8,48.3,435,45.1z"/>
			<path class="st1" d="M485.4,54.3c0.3-1.7-1.2-3.7-3.5-4.4c-4.5-1.4-9-2.6-13.4-3.5c-2.3-0.5-4.6,0.5-5,2.2
				c-0.9,3.3-1.8,6.6-2.6,9.9c-0.5,1.7,1.1,3.4,3.5,4c4.7,1.1,9.4,2.3,14.1,3.7c2.4,0.7,4.6,0,5-1.8C484.1,61,484.7,57.6,485.4,54.3
				z"/>
			<path class="st1" d="M510.2,64.2c0.3-1.7-1.4-4-3.7-5c-4.4-2-8.9-3.8-13.3-5.5c-2.3-0.8-4.4-0.1-4.7,1.6c-0.6,3.3-1.3,6.7-2,10
				c-0.3,1.7,1.3,3.7,3.7,4.6c4.7,1.7,9.3,3.5,13.9,5.5c2.4,1,4.4,0.5,4.7-1.2C509.3,71,509.7,67.6,510.2,64.2z"/>
			<path class="st1" d="M534.5,77.7c0.1-1.7-1.6-4.3-3.8-5.6c-4.3-2.6-8.7-5.1-13.1-7.4c-2.3-1.2-4.2-0.6-4.4,1.1
				c-0.4,3.4-0.8,6.7-1.2,10.1c-0.3,1.7,1.5,4,3.8,5.2c4.6,2.3,9.2,4.8,13.7,7.4c2.3,1.4,4.3,1.1,4.4-0.6
				C534.1,84.4,534.3,81.1,534.5,77.7z"/>
			<path class="st1" d="M558,94.8c0-1.7-1.7-4.6-3.8-6.3c-4.1-3.3-8.3-6.4-12.6-9.4c-2.2-1.5-4-1.2-4.1,0.5
				c-0.2,3.4-0.4,6.8-0.6,10.2c-0.1,1.7,1.7,4.3,3.9,5.8c4.4,2.9,8.8,6.1,13.1,9.4c2.2,1.7,4,1.7,4,0C558,101.6,558,98.2,558,94.8z"
				/>
			<path class="st1" d="M428.7,63c0.6-1.7-0.9-3.1-3.3-3.1c-4.7-0.1-9.5,0-14.2,0.3c-2.4,0.2-4.9,1.7-5.5,3.2
				c-1.3,3.1-2.6,6.3-3.9,9.4c-0.6,1.6,0.8,2.8,3.3,2.6c4.9-0.3,9.8-0.3,14.7-0.1c2.6,0,5-1.1,5.6-2.8
				C426.4,69.4,427.6,66.2,428.7,63z"/>
			<path class="st1" d="M533.3,96.6c0.1-1.7-1.7-4.3-4-5.7c-4.6-2.6-9.1-5.1-13.7-7.4c-2.4-1.2-4.4-0.7-4.7,1.1
				c-0.4,3.4-0.8,6.7-1.2,10.1c-0.3,1.7,1.6,4.1,4.1,5.2c4.8,2.4,9.6,4.9,14.3,7.5c2.4,1.4,4.4,1.1,4.6-0.6
				C532.9,103.3,533,99.9,533.3,96.6z"/>
			<path class="st1" d="M557.9,113.7c0-1.7-1.8-4.6-4-6.3c-4.3-3.3-8.7-6.4-13.2-9.4c-2.3-1.5-4.2-1.2-4.3,0.5
				c-0.2,3.4-0.4,6.8-0.6,10.2c-0.1,1.7,1.8,4.3,4.1,5.8c4.7,2.9,9.2,6.1,13.7,9.4c2.3,1.7,4.1,1.7,4.1,0
				C557.9,120.5,557.9,117.1,557.9,113.7z"/>
			<path class="st1" d="M422.4,80.8c0.6-1.7-1-3.1-3.5-3.2c-5-0.2-9.9-0.1-14.8,0.1c-2.5,0.1-5.1,1.6-5.7,3.2
				c-1.3,3.1-2.6,6.3-3.9,9.4c-0.6,1.6,0.9,2.8,3.5,2.7c5.1-0.2,10.2-0.1,15.3,0.1c2.6,0.1,5.2-1.1,5.8-2.7
				C420.1,87.2,421.3,84,422.4,80.8z"/>
			<path class="st1" d="M477.8,91.4c0.3-1.7-1.4-3.7-4-4.5c-5-1.5-9.9-2.8-14.9-3.9c-2.6-0.6-5,0.3-5.4,2.1
				c-0.9,3.2-1.8,6.6-2.6,9.9c-0.5,1.7,1.3,3.5,4,4.1c5.2,1.2,10.3,2.6,15.5,4.1c2.6,0.8,5,0,5.4-1.7
				C476.4,98.1,477.1,94.7,477.8,91.4z"/>
			<path class="st1" d="M505.2,101.7c0.3-1.7-1.6-4-4.1-5.1c-4.9-2.1-9.8-4-14.7-5.7c-2.5-0.9-4.9-0.2-5.1,1.5
				c-0.6,3.3-1.3,6.7-2,10c-0.3,1.7,1.5,3.8,4.1,4.7c5.1,1.8,10.3,3.7,15.4,5.8c2.6,1.1,4.9,0.6,5.1-1.2
				C504.4,108.5,504.8,105.1,505.2,101.7z"/>
			<path class="st1" d="M532.1,115.5c0.1-1.7-1.8-4.3-4.2-5.7c-4.8-2.6-9.6-5.2-14.4-7.5c-2.5-1.2-4.7-0.7-4.9,1
				c-0.4,3.4-0.8,6.7-1.2,10.1c-0.3,1.7,1.7,4.1,4.3,5.2c5,2.4,10,4.9,15,7.6c2.6,1.4,4.7,1.1,4.8-0.6
				C531.6,122.2,531.9,118.8,532.1,115.5z"/>
			<path class="st1" d="M557.8,132.6c0-1.7-1.8-4.6-4.1-6.3c-4.6-3.3-9.2-6.4-13.8-9.4c-2.4-1.5-4.4-1.3-4.5,0.5
				c-0.2,3.4-0.4,6.8-0.6,10.2c-0.1,1.7,1.8,4.3,4.3,5.8c4.9,2.9,9.6,6.1,14.3,9.4c2.4,1.7,4.3,1.7,4.3,0
				C557.8,139.4,557.8,136,557.8,132.6z"/>
			<path class="st1" d="M416.1,98.7c0.6-1.7-1.1-3.1-3.7-3.2c-5.1-0.3-10.3-0.3-15.4-0.1c-2.6,0-5.2,1.5-5.9,3.1
				c-1.3,3.1-2.6,6.3-3.9,9.4c-0.6,1.6,0.9,2.9,3.7,2.8c5.2-0.1,10.6,0,15.9,0.3c2.7,0.2,5.4-1,6-2.6
				C413.8,105,414.9,101.8,416.1,98.7z"/>
			<path class="st1" d="M474,110c0.3-1.7-1.5-3.8-4.1-4.6c-5.2-1.5-10.4-2.9-15.6-4.1c-2.6-0.6-5.1,0.3-5.6,2
				c-0.9,3.2-1.8,6.6-2.6,9.9c-0.5,1.7,1.4,3.5,4.2,4.1c5.4,1.2,10.8,2.6,16.2,4.2c2.8,0.8,5.2,0.1,5.6-1.6
				C472.6,116.6,473.4,113.2,474,110z"/>
			<path class="st1" d="M502.8,120.5c0.3-1.7-1.7-4-4.3-5.1c-5.1-2.1-10.3-4-15.4-5.8c-2.6-0.9-5-0.3-5.4,1.5c-0.6,3.3-1.3,6.7-2,10
				c-0.3,1.7,1.6,3.8,4.4,4.7c5.4,1.8,10.8,3.8,16,5.9c2.7,1.1,5.1,0.6,5.3-1.1C501.9,127.2,502.3,123.9,502.8,120.5z"/>
			<path class="st1" d="M530.9,134.3c0.1-1.7-1.8-4.3-4.4-5.7c-5-2.7-10-5.2-15.1-7.6c-2.6-1.2-4.9-0.7-5.1,1
				c-0.4,3.4-0.8,6.7-1.2,10.1c-0.3,1.7,1.8,4.1,4.5,5.3c5.2,2.4,10.5,4.9,15.7,7.6c2.6,1.4,4.9,1.1,5-0.6
				C530.4,141.1,530.7,137.7,530.9,134.3z"/>
			<path class="st1" d="M557.7,151.5c0-1.7-1.9-4.6-4.3-6.3c-4.7-3.3-9.6-6.5-14.4-9.4c-2.5-1.5-4.6-1.3-4.7,0.5
				c-0.2,3.4-0.4,6.8-0.6,10.2c-0.1,1.7,2,4.3,4.6,5.8c5.1,2.9,10.1,6.1,15,9.4c2.5,1.7,4.5,1.7,4.5,0
				C557.7,158.3,557.7,154.9,557.7,151.5z"/>
			<path class="st1" d="M409.8,116.5c0.6-1.7-1.2-3.2-3.9-3.3c-5.4-0.3-10.7-0.4-16-0.3c-2.7,0-5.4,1.5-6.1,3.1
				c-1.3,3.1-2.6,6.3-3.9,9.4c-0.6,1.6,1,2.9,3.8,2.9c5.4,0,10.9,0.2,16.5,0.5c2.9,0.2,5.6-0.9,6.1-2.6
				C407.6,122.9,408.7,119.7,409.8,116.5z"/>
			<path class="st1" d="M439.9,120.8c0.5-1.7-1.4-3.5-4.1-4c-5.4-1-10.8-1.8-16.3-2.4c-2.8-0.3-5.4,0.8-6,2.5
				c-1.1,3.2-2.2,6.4-3.3,9.6c-0.6,1.7,1.3,3.2,4.1,3.5c5.6,0.7,11.2,1.6,16.8,2.6c2.9,0.5,5.5-0.3,6-2
				C438.1,127.4,439,124,439.9,120.8z"/>
			<path class="st1" d="M470.2,128.5c0.3-1.7-1.6-3.8-4.4-4.6c-5.4-1.6-10.9-2.9-16.3-4.3c-2.8-0.6-5.4,0.3-5.8,2
				c-0.9,3.3-1.8,6.6-2.6,9.9c-0.5,1.7,1.5,3.5,4.4,4.2c5.6,1.3,11.3,2.8,16.9,4.4c2.9,0.8,5.5,0.2,5.8-1.5
				C468.9,135.1,469.5,131.8,470.2,128.5z"/>
			<path class="st1" d="M500.3,139.3c0.3-1.7-1.8-4.1-4.6-5.1c-5.4-2.1-10.8-4.1-16.1-5.9c-2.8-0.9-5.2-0.3-5.6,1.5
				c-0.6,3.3-1.3,6.7-2,10c-0.3,1.7,1.7,3.8,4.6,4.8c5.6,1.9,11.2,3.9,16.8,6c2.9,1.1,5.3,0.6,5.5-1.1
				C499.3,146,499.8,142.6,500.3,139.3z"/>
			<path class="st1" d="M529.6,153.2c0.1-1.7-2-4.3-4.6-5.7c-5.2-2.7-10.5-5.2-15.7-7.6c-2.7-1.2-5.1-0.8-5.3,0.9
				c-0.4,3.4-0.8,6.7-1.2,10.1c-0.3,1.7,1.9,4.1,4.7,5.3c5.5,2.4,11,5,16.3,7.7c2.8,1.4,5.1,1.1,5.2-0.6
				C529.2,160,529.4,156.6,529.6,153.2z"/>
			<path class="st1" d="M557.7,170.5c0-1.7-2-4.6-4.5-6.3c-4.9-3.3-10-6.5-15.1-9.4c-2.6-1.5-4.8-1.3-4.9,0.5
				c-0.2,3.4-0.4,6.8-0.6,10.2c-0.1,1.7,2,4.3,4.7,5.8c5.2,3,10.5,6.1,15.6,9.4c2.6,1.7,4.7,1.7,4.7,0
				C557.6,177.3,557.7,173.8,557.7,170.5z"/>
			<path class="st1" d="M580.2,51.9c0.1,1.7-1.5,4.3-3.5,5.8c-4,2.9-8,6-11.9,9.4c-2,1.7-3.6,1.7-3.6,0c0-3.4,0-6.8,0-10.2
				c0-1.7,1.5-4.6,3.4-6.3c3.7-3.3,7.5-6.4,11.3-9.3c2-1.5,3.6-1.2,3.7,0.5C579.8,45.2,580,48.6,580.2,51.9z"/>
			<path class="st1" d="M601.3,28.2c-0.3-1.7-2-2.3-4-1.1c-3.9,2.3-7.8,4.7-11.7,7.3c-2,1.3-3.5,3.8-3.4,5.6
				c0.3,3.4,0.4,6.8,0.6,10.2c0.1,1.7,1.9,2,4,0.6c4.1-2.6,8.1-5.1,12.3-7.3c2.1-1.2,3.7-3.4,3.4-5.1
				C602.2,34.9,601.8,31.5,601.3,28.2z"/>
			<path class="st1" d="M623.5,18.2c-0.3-1.7-2.3-2.5-4.3-1.7c-4,1.6-8,3.3-11.9,5.2c-2,1-3.4,3.2-3.2,5c0.5,3.4,0.9,6.7,1.4,10.1
				c0.3,1.7,2.1,2.3,4.3,1.3c4.1-2,8.3-3.7,12.5-5.3c2.1-0.8,3.6-2.9,3.2-4.6C624.8,24.9,624.2,21.5,623.5,18.2z"/>
			<path class="st1" d="M646,12c-0.5-1.7-2.5-2.7-4.6-2.3c-4,0.9-8.1,2-12.1,3.2c-2.1,0.6-3.4,2.6-3.1,4.3c0.7,3.3,1.4,6.7,2.1,10
				c0.3,1.7,2.4,2.5,4.6,1.8c4.2-1.3,8.4-2.4,12.7-3.4c2.2-0.5,3.5-2.2,3.1-3.9C647.7,18.5,646.9,15.2,646,12z"/>
			<path class="st1" d="M668.8,9.5c-0.6-1.7-2.7-2.9-4.9-2.9c-4.1,0.2-8.2,0.6-12.3,1.2c-2.1,0.3-3.4,2-2.9,3.6
				c0.9,3.2,1.8,6.6,2.7,9.8c0.5,1.7,2.6,2.7,4.8,2.4c4.3-0.6,8.6-1.1,12.9-1.4c2.2-0.1,3.5-1.5,2.9-3.2
				C671.1,15.9,670,12.7,668.8,9.5z"/>
			<path class="st1" d="M692,11c-0.6-1.6-2.9-3.2-5-3.5c-4.1-0.5-8.3-0.9-12.5-1c-2.1,0-3.4,1.2-2.8,2.9c1.1,3.2,2.3,6.4,3.4,9.6
				c0.6,1.7,2.9,2.9,5,2.9c4.3,0,8.6,0.3,12.9,0.8c2.2,0.3,3.4-0.8,2.8-2.4C694.6,17.3,693.3,14.2,692,11z"/>
			<path class="st1" d="M580.7,60.7c-0.1-1.7-1.9-2-3.9-0.5c-4,2.9-8,6.1-11.9,9.4c-2,1.7-3.6,4.6-3.6,6.3c0,3.4,0,6.8,0,10.2
				c0,1.8,1.7,1.7,3.8,0c4.1-3.3,8.3-6.4,12.5-9.4c2.1-1.5,3.8-4.1,3.7-5.8C581.1,67.5,580.9,64.1,580.7,60.7z"/>
			<path class="st1" d="M675,27.4c-0.6-1.7-2.9-2.9-5-2.8c-4.3,0.3-8.6,0.8-12.9,1.4c-2.2,0.3-3.6,2-3.1,3.7
				c0.9,3.2,1.8,6.6,2.7,9.8c0.5,1.7,2.7,2.7,5,2.4c4.5-0.7,9-1.2,13.5-1.6c2.3-0.2,3.7-1.6,3.1-3.2C677.2,33.8,676.1,30.6,675,27.4
				z"/>
			<path class="st1" d="M699.2,28.5c-0.6-1.6-3-3.2-5.2-3.4c-4.4-0.5-8.7-0.7-13-0.8c-2.2,0-3.5,1.4-2.9,2.9
				c1.1,3.2,2.3,6.4,3.4,9.6c0.6,1.7,2.9,2.9,5.2,2.9c4.5,0,9,0.2,13.5,0.6c2.3,0.2,3.6-0.9,2.9-2.5
				C701.8,34.8,700.5,31.6,699.2,28.5z"/>
			<path class="st1" d="M581.8,79.6c-0.1-1.7-2-2-4.1-0.5c-4.3,2.9-8.4,6.1-12.6,9.4c-2.1,1.7-3.8,4.6-3.8,6.3c0,3.4,0,6.8,0,10.2
				c0,1.8,1.8,1.7,4,0c4.3-3.3,8.7-6.4,13.1-9.4c2.3-1.5,4-4.1,3.9-5.8C582.1,86.4,581.9,82.9,581.8,79.6z"/>
			<path class="st1" d="M630.8,55.4c-0.3-1.7-2.5-2.5-4.7-1.6c-4.4,1.7-8.9,3.5-13.3,5.5c-2.3,1-3.9,3.3-3.7,5
				c0.5,3.4,0.9,6.7,1.4,10.1c0.3,1.7,2.3,2.3,4.7,1.2c4.6-2,9.3-3.9,13.9-5.5c2.4-0.9,4-2.9,3.7-4.6
				C632.1,62,631.4,58.7,630.8,55.4z"/>
			<path class="st1" d="M655.8,48.5c-0.5-1.7-2.7-2.6-5-2.2c-4.5,1-9,2.2-13.4,3.5c-2.3,0.7-3.8,2.7-3.5,4.4c0.7,3.3,1.4,6.7,2.1,10
				c0.3,1.7,2.6,2.5,5,1.8c4.7-1.4,9.4-2.6,14.1-3.7c2.4-0.5,4-2.3,3.5-4C657.6,55.1,656.7,51.8,655.8,48.5z"/>
			<path class="st1" d="M706.4,46c-0.6-1.6-3.1-3.1-5.4-3.4c-4.6-0.4-9.1-0.6-13.6-0.5c-2.3,0-3.7,1.4-3.1,3.1
				c1.1,3.2,2.3,6.4,3.4,9.6c0.6,1.7,3,2.9,5.4,2.9c4.7,0,9.4,0,14.1,0.3c2.4,0.2,3.8-0.9,3.1-2.6C709,52.2,707.8,49.1,706.4,46z"/>
			<path class="st1" d="M582.8,98.5c-0.1-1.7-2.1-2-4.3-0.5c-4.4,2.9-8.9,6.1-13.2,9.4c-2.2,1.7-4,4.6-4,6.3c0,3.4,0,6.8,0,10.2
				c0,1.8,1.8,1.7,4.1,0c4.5-3.3,9.1-6.4,13.7-9.4c2.4-1.5,4.3-4.1,4.1-5.8C583.3,105.3,583,101.8,582.8,98.5z"/>
			<path class="st1" d="M634.4,73.9c-0.3-1.7-2.6-2.4-5-1.6c-4.7,1.7-9.4,3.5-14,5.6c-2.4,1-4.1,3.3-3.9,5c0.5,3.4,0.9,6.7,1.4,10.1
				c0.3,1.7,2.4,2.3,4.9,1.2c4.9-2.1,9.7-4,14.6-5.7c2.5-0.9,4.3-2.9,3.9-4.7C635.7,80.6,635.1,77.3,634.4,73.9z"/>
			<path class="st1" d="M660.8,66.8c-0.5-1.7-2.8-2.6-5.2-2.1c-4.7,1.1-9.4,2.3-14.2,3.7c-2.4,0.7-4.1,2.7-3.7,4.4
				c0.7,3.3,1.4,6.7,2.1,10c0.3,1.7,2.6,2.4,5.2,1.7c4.9-1.5,9.9-2.8,14.8-3.9c2.6-0.6,4.2-2.4,3.7-4
				C662.6,73.3,661.7,70.1,660.8,66.8z"/>
			<path class="st1" d="M713.7,63.5c-0.6-1.6-3.1-3.1-5.5-3.2c-4.7-0.3-9.4-0.4-14.2-0.3c-2.4,0-3.9,1.5-3.3,3.1
				c1.1,3.2,2.3,6.4,3.4,9.6c0.6,1.7,3.1,2.9,5.6,2.8c4.9-0.2,9.8-0.1,14.7,0.1c2.5,0.1,4-1,3.3-2.6C716.3,69.7,715,66.6,713.7,63.5
				z"/>
			<path class="st1" d="M583.9,117.4c-0.1-1.7-2.1-2-4.5-0.5c-4.7,2.9-9.3,6.1-13.8,9.4c-2.3,1.7-4.1,4.6-4.1,6.3
				c0,3.4,0,6.8,0,10.2c0,1.8,2,1.7,4.3,0c4.7-3.3,9.5-6.5,14.3-9.4c2.5-1.5,4.4-4.1,4.3-5.8C584.3,124.2,584.2,120.8,583.9,117.4z"
				/>
			<path class="st1" d="M638,92.5c-0.3-1.7-2.6-2.4-5.1-1.5c-4.9,1.7-9.9,3.7-14.7,5.7c-2.5,1.1-4.3,3.4-4.1,5.1
				c0.5,3.4,0.9,6.7,1.4,10.1c0.3,1.7,2.5,2.3,5.1,1.2c5.1-2.1,10.2-4,15.4-5.8c2.6-0.9,4.5-2.9,4.1-4.7
				C639.4,99.2,638.7,95.8,638,92.5z"/>
			<path class="st1" d="M665.7,85c-0.5-1.7-2.9-2.6-5.4-2.1c-5,1.1-9.9,2.4-14.9,3.9c-2.6,0.8-4.3,2.8-4,4.5c0.7,3.3,1.4,6.7,2.1,10
				c0.3,1.7,2.8,2.4,5.4,1.7c5.1-1.5,10.3-2.9,15.5-4.1c2.6-0.6,4.4-2.4,4-4.1C667.5,91.6,666.6,88.3,665.7,85z"/>
			<path class="st1" d="M720.9,80.9c-0.6-1.6-3.2-3.1-5.7-3.2c-4.9-0.3-9.9-0.3-14.8-0.1c-2.6,0-4.1,1.5-3.5,3.2
				c1.1,3.2,2.3,6.4,3.4,9.6c0.6,1.7,3.2,2.9,5.8,2.7c5.1-0.3,10.2-0.3,15.3-0.1c2.6,0,4.1-1.1,3.5-2.7
				C723.5,87.2,722.2,84.1,720.9,80.9z"/>
			<path class="st1" d="M585,136.3c-0.1-1.7-2.3-2-4.7-0.5c-4.9,2.9-9.7,6.1-14.4,9.4c-2.4,1.7-4.3,4.6-4.3,6.3c0,3.4,0,6.8,0,10.2
				c0,1.8,2,1.7,4.5,0c4.9-3.3,9.9-6.5,15-9.4c2.6-1.5,4.6-4.1,4.6-5.8C585.4,143.1,585.2,139.7,585,136.3z"/>
			<path class="st1" d="M699.6,99c-0.6-1.7-3.2-2.8-5.8-2.6c-5.2,0.5-10.4,1.3-15.6,2.3c-2.6,0.5-4.4,2.3-4,4
				c0.9,3.2,1.8,6.6,2.7,9.8c0.5,1.7,3.1,2.6,5.8,2.1c5.4-0.9,10.8-1.8,16.1-2.4c2.7-0.3,4.5-1.8,3.9-3.5
				C701.8,105.4,700.7,102.1,699.6,99z"/>
			<path class="st1" d="M728.2,98.4c-0.6-1.6-3.3-3.1-5.9-3.1c-5.1-0.2-10.2-0.1-15.4,0.1c-2.6,0.1-4.3,1.6-3.7,3.2
				c1.1,3.2,2.3,6.4,3.4,9.6c0.6,1.7,3.2,2.8,6,2.6c5.3-0.3,10.6-0.4,15.9-0.3c2.6,0,4.3-1.1,3.7-2.8
				C730.8,104.7,729.5,101.6,728.2,98.4z"/>
			<path class="st1" d="M586.1,155.2c-0.1-1.7-2.3-2-4.9-0.5c-5.1,3-10.1,6.1-15.1,9.4c-2.6,1.7-4.5,4.6-4.5,6.3c0,3.4,0,6.8,0,10.2
				c0,1.7,2.1,1.7,4.7,0c5.1-3.3,10.3-6.5,15.6-9.4c2.7-1.5,4.9-4.1,4.7-5.8C586.5,162,586.3,158.6,586.1,155.2z"/>
			<path class="st1" d="M615.3,140.8c-0.3-1.7-2.6-2.2-5.3-0.9c-5.3,2.4-10.6,5-15.7,7.6c-2.6,1.4-4.7,4-4.6,5.7
				c0.3,3.4,0.4,6.8,0.6,10.2c0.1,1.7,2.4,2,5.2,0.6c5.4-2.7,10.9-5.2,16.3-7.7c2.9-1.2,4.9-3.6,4.7-5.3
				C616.2,147.5,615.7,144.2,615.3,140.8z"/>
			<path class="st1" d="M645.3,129.7c-0.3-1.7-2.9-2.4-5.6-1.5c-5.4,1.8-10.8,3.8-16.1,5.9c-2.7,1.1-4.7,3.4-4.6,5.1
				c0.5,3.4,0.9,6.7,1.4,10.1c0.3,1.7,2.7,2.2,5.5,1.1c5.5-2.2,11.2-4.2,16.8-6c2.9-0.9,4.9-3.1,4.6-4.8
				C646.6,136.3,646,133,645.3,129.7z"/>
			<path class="st1" d="M675.5,121.6c-0.5-1.7-3.1-2.6-5.8-2c-5.4,1.2-10.9,2.6-16.3,4.3c-2.8,0.8-4.7,2.9-4.4,4.6
				c0.7,3.3,1.4,6.7,2.1,10c0.3,1.7,2.9,2.4,5.8,1.5c5.6-1.6,11.3-3.1,16.9-4.4c2.9-0.6,4.9-2.6,4.4-4.2
				C677.3,128.1,676.4,124.9,675.5,121.6z"/>
			<path class="st1" d="M705.8,116.9c-0.6-1.7-3.2-2.8-6-2.5c-5.4,0.6-10.8,1.4-16.3,2.4c-2.8,0.5-4.6,2.3-4.1,4
				c0.9,3.2,1.8,6.6,2.7,9.8c0.5,1.7,3.2,2.6,6,2c5.6-1.1,11.2-1.9,16.8-2.6c2.9-0.3,4.7-2,4.1-3.5
				C707.9,123.3,706.9,120,705.8,116.9z"/>
			<path class="st1" d="M735.4,115.9c-0.6-1.6-3.4-3-6.1-3.1c-5.2-0.1-10.6,0-16,0.3c-2.7,0.2-4.5,1.7-3.9,3.3
				c1.1,3.2,2.3,6.4,3.4,9.6c0.6,1.7,3.4,2.8,6.1,2.6c5.5-0.3,11-0.6,16.5-0.5c2.8,0,4.5-1.2,3.8-2.9
				C738,122.2,736.7,119,735.4,115.9z"/>
		</g>
	</g>
</g>
</svg>
